<svg width="512" height="512" version="1.1" viewBox="0 0 512 512" xml:space="preserve" xmlns="http://www.w3.org/2000/svg"><path d="m278.08 8.8477c-0.66995 0.030631-1.2794 0.11203-1.7695 0.27539-0.29143 0.097145-0.37757 0.51496-0.65234 0.65234-0.56968 0.28484-2.0552-0.13757-2.6055 0-3.4072 0.8518-7.0026 1.6269-10.428 2.6055-2.3393 0.66836-4.5393 1.9422-6.5156 3.2598-1.201 0.80065-2.5642 0.76435-3.9102 1.3027-3.2227 1.2891-5.9312 3.2858-9.123 4.5625-3.4425 1.377-6.3916 3.8594-9.7754 5.2129-3.0825 1.233-6.8381-0.81262-9.123-1.9551-0.58287-0.29143-1.3369 0.20607-1.9551 0-0.74302-0.24767-0.77561-1.6955-1.9551-1.3027-1.7682-0.44205-6.0826-0.28961-7.8203 0-0.67757 0.11293-1.3034 0.43317-1.9551 0.65039-0.43445 0.21722-0.82644 0.55708-1.3027 0.65234-7.0638 1.4128-13.488 1.6836-20.201 4.5605-1.5776 0.67613-2.9241 1.9521-4.5625 2.6074-1.7856 0.71424-3.9808 1.5782-5.8652 1.9551-0.42601 0.0852-0.91415-0.19429-1.3027 0-0.54954 0.27476-0.75515 1.028-1.3047 1.3027-0.38858 0.19429-0.91416-0.19429-1.3027 0-0.19429 0.09714 0.1536 0.49874 0 0.65234-0.1536 0.1536-0.4561-0.09715-0.65039 0-0.39673 0.19836-3.0758 4.0107-3.2598 4.5625-0.13738 0.41215 0.13739 0.89058 0 1.3027-0.23805 0.71415-1.5325 1.3213-1.9551 1.9551-0.64887 0.97331-0.60089 2.322-1.3027 3.2578-0.29144 0.38858-0.95928 0.30889-1.3027 0.65234-0.48544 0.48544-0.93648 2.2373-1.3047 2.6055-0.1536 0.1536-0.4561-0.09714-0.65039 0-0.97144 0.48572-0.99347 2.3164-2.6074 1.9551-4.6157 1.9782-10.567 2.7482-14.336 6.5176-0.5538 0.55381-0.95442 1.2546-1.3047 1.9551-0.19429 0.38858 0.3072 0.99554 0 1.3027-0.1536 0.1536-0.55329-0.19429-0.65039 0-0.19429 0.38858 0.10537 0.88126 0 1.3027-0.53689 2.1476-1.6702 4.2384-1.9551 6.5176-0.39973 3.1978-0.85546 9.3281-3.2578 11.73-0.50928 0.5093-1.9624 0.43539-2.6074 0.65039-0.58287 0.19429-0.7532 1.0299-1.3027 1.3047-1.5198 0.75991-3.5953 1.4152-5.2148 1.9551-1.173 0.39102-2.707-0.30079-3.9102 0-0.47123 0.1178-0.82645 0.55513-1.3027 0.65039-1.278 0.2556-2.6321-0.2556-3.9102 0-0.47629 0.09526-0.82644 0.55708-1.3027 0.65234-1.0875 0.2175-5.7435-0.77405-6.5176 0-0.1536 0.1536 0.1536 0.49874 0 0.65234-0.58485 0.58484-3.3253 0.71789-3.9102 1.3027-0.1536 0.1536 0.1536 0.49874 0 0.65234-0.0166 0.01665-2.9162 1.7501-3.2578 1.9551-1.6319 0.97914-3.4478 1.5886-4.5606 3.2578-0.26943 0.40415-0.30888 0.95928-0.65234 1.3027-0.1536 0.1536-0.49875-0.1536-0.65235 0-0.55381 0.55381-1.0551 1.2121-1.3027 1.9551-0.13738 0.41215 0.16135 0.89936 0 1.3027-0.29087 0.72719-1.0119 1.2279-1.3027 1.9551-0.27538 0.68844-0.37697 2.5713-0.65234 3.2598-0.60778 1.5194-0.99398 1.4053-1.3027 3.2578-0.10713 0.6428 0.20607 1.3368 0 1.9551-0.70079 2.1024-1.4939 1.4132-1.9551 3.2578-0.10537 0.42147 0.19429 0.91416 0 1.3027-0.67591 1.3518-2.2664 1.616-3.2578 2.6074-1.005 1.005-1.3715 2.4338-2.6074 3.2578-0.40414 0.26943-0.95928 0.30889-1.3027 0.65234-0.1536 0.1536 0.12049 0.47161 0 0.65235-0.3408 0.51121-0.93605 0.81121-1.3047 1.3027-0.98572 1.3143-1.2689 3.1882-1.9551 4.5606-0.53918 1.0784 0.65234 11.625 0.65234 13.686 0 1.003 0.48261 3.5973 0 4.5625-0.35026 0.7005-0.86829 1.3034-1.3027 1.9551-0.21722 0.21722-0.49429 0.38698-0.65234 0.65039-1.3059 2.1766-2.4713 5.4606-3.2578 7.8203-0.45627 1.3688 0.3515 2.7146 0.65039 3.9102 0.1914 0.76563-0.35145 2.5549 0 3.2578 0.09714 0.19429 0.5552-0.19429 0.65234 0 0.29143 0.58286-0.4608 1.4943 0 1.9551 0.1536 0.1536 0.49875-0.1536 0.65234 0 0.4608 0.4608-0.15805 1.3229 0 1.9551 0.70061 2.8024 1.3012 6.5206 0 9.123-0.782 1.564 0.782 4.3012 0 5.8652-0.88269 1.7654-2.3712 3.4378-3.2598 5.2148-0.19748 0.39495-0.37732 1.682-0.65039 1.9551-0.1536 0.1536-0.49874-0.15358-0.65234 0-0.1536 0.1536 0.09714 0.45611 0 0.6504-0.44903 0.89805-1.5284 0.87801-1.9551 1.3047-1.3483 1.3483 2.0617-0.0533-0.65039 1.3027-0.19429 0.0971-0.49875-0.1536-0.65234 0-0.21722 0.21723-0.43512 1.7379-0.65234 1.9551-0.1536 0.1536-0.49679-0.15359-0.65039 0-0.3072 0.30719 0.3072 0.99553 0 1.3027-0.1536 0.1536-0.49874-0.1536-0.65234 0-0.23202 0.23202-0.62941 1.9322-0.65234 1.9551-0.32583 0.32583-0.9769 0.3265-1.3027 0.65234-0.32648 0.32648-0.22513 2.1782-0.65234 2.6055-0.32583 0.32583-0.9769 0.32652-1.3027 0.65234-0.3072 0.3072 0.3072 0.99554 0 1.3027-0.1536 0.1536-0.49874-0.1536-0.65234 0s0.1536 0.49874 0 0.65234c-0.26084 0.26084-0.82753 0.35234-1.3027 1.3027-0.43703 0.87406-0.24155 2.4382-0.65234 3.2598-1.6335 3.2669-4.2922 6.7431-5.2129 10.426-0.10537 0.42148 0.13738 0.89059 0 1.3027-0.19429 0.58287-1.1084 0.72182-1.3027 1.3047-0.13738 0.41214 0.13738 0.89058 0 1.3027-0.24767 0.74301-1.6955 0.7756-1.3027 1.9551-0.15805 0.63221 0.29143 1.3722 0 1.9551-0.73546 1.4709-0.83349 2.4966-1.3047 3.9102-0.21632 0.64896-1.0864 1.3061-1.3027 1.9551-0.13738 0.41215 0.10537 0.88128 0 1.3027-0.38558 1.5424-1.4501 3.0476-1.9551 4.5625-0.57332 1.72-0.65234 2.3986-0.65234 3.9102 0 0.21722 0.1536 0.49679 0 0.65039-0.1536 0.1536-0.49679-0.1536-0.65039 0-0.48547 0.48547 0.20928 3.2823 0 3.9102-0.09714 0.29143-0.51496 0.37758-0.65234 0.65234-0.19429 0.38858 0.13738 0.89059 0 1.3027-0.73816 2.2145-1.6342 3.9188-2.6074 5.8652-0.19429 0.38858 0.13738 0.8906 0 1.3027-0.3205 0.9615-1.0295 1.7876-1.3027 2.6074-0.27477 0.82429 0.27477 1.7812 0 2.6055-0.09714 0.29142-0.5552 0.36091-0.65234 0.65234-0.64265 1.928 0.40038 4.5157 0 6.5176-0.09526 0.47629-0.49679 0.84193-0.65039 1.3027-0.63057 1.8917 0.88129 4.753 0 6.5156-0.09714 0.19429-0.58365-0.20607-0.65234 0-1.0888 3.2663 0.52719 9.933 1.3027 13.035 0.42047 1.6819 0.10022 3.5565 0.65234 5.2129 0.09714 0.29143 0.55519 0.35897 0.65234 0.65039 0.13738 0.41215-0.10537 0.88321 0 1.3047 0.23561 0.94244 0.99554 1.6839 1.3027 2.6055 1.081 3.2431 2.6128 6.5321 3.9102 9.7754 1.2816 3.204 3.3009 5.9691 4.5625 9.123 0.19642 0.49104 1.2029 4.3628 1.3027 4.5625 0.25316 0.50633 1.1961 1.4218 1.3027 1.9551 0.1704 0.85201-0.14284 1.7484 0 2.6055 0.3288 1.9728 0.80954 0.95099 1.3027 3.9102 0.37155 2.2293 0 4.9127 0 7.1699 0 1.9693 0.63377 5.2667 0 7.168-0.3677 1.1031-1.0214 2.1324-1.3027 3.2578-0.26342 1.0537 0.213 2.1928 0 3.2578-0.19052 0.95257-0.99554 1.6858-1.3027 2.6074-1.5339 4.6017-2.7675 9.198-4.5625 13.686-1.0429 2.6072-3.0127 5.1259-3.9102 7.8184-0.28322 0.84967-0.33592 1.7688-0.65039 2.6074-1.1246 2.999-3.2743 5.9436-3.9102 9.123-0.213 1.065 0.13472 2.182 0 3.2598-0.26341 2.1073-2.3563 10.93-1.3047 13.033 1.2151 2.4303 2.0385 5.626 2.6074 8.4707 0.1704 0.852-0.1704 1.7554 0 2.6074 1.5216 7.6081 0.92296 0.43012 2.6074 7.168 0.48916 1.9566 0.01879 4.6208 0.65039 6.5156 0.09714 0.29144 0.57783 0.35433 0.65234 0.65234 0.15805 0.63221-0.20608 1.3369 0 1.9551 0.06869 0.20608 0.5552-0.19429 0.65234 0 0.51364 1.0273-0.21664 3.4793 0 4.5625 0.26943 1.3472 0.68834 2.6814 1.3027 3.9102 0.391 0.782 1.5641 1.1731 1.9551 1.9551 0.09715 0.19429-0.1536 0.49679 0 0.65039 0.3072 0.30719 0.99554-0.3072 1.3027 0 0.48572 0.48572 0.27131 1.3835 0.65234 1.9551 0.43444 0.65165 1.5206 0.65106 1.9551 1.3027 0.24098 0.36148-0.13738 0.89254 0 1.3047 0.26066 0.782 1.6944 1.1731 1.9551 1.9551 0.13738 0.41215-0.19429 0.91415 0 1.3027 0.09714 0.19429 0.49679-0.1536 0.65039 0 1.1412 1.1412 2.5203 3.734 3.2598 5.2129 0.57473 1.1495 0.98535 3.5928 1.9551 4.5625 0.98269 0.98269 3.1502 2.1178 3.9102 3.2578 0.96153 1.4423 0.2639 1.48 1.9551 2.6074 1.245 0.82999 10.298 4.0398 12.381 4.5605 0.84294 0.21073 1.7831-0.27477 2.6074 0 1.0024 0.33413 2.2554 1.621 3.2578 1.9551 0.41215 0.13738 0.89059-0.13738 1.3027 0 0.32744 0.10915 1.7702 2.7016 2.6074 3.2598 2.0161 1.344 1.2053 1.8576 2.6055 3.2578 0.34346 0.34346 0.96123 0.30693 1.3047 0.65039 1.0097 1.0098 2.278 3.9085 3.2578 5.2148 1.23 1.64 3.2294 2.5771 4.5625 3.9102 1.2297 1.2297 2.0304 3.2823 3.9082 3.9082 0.61822 0.20608 1.3722-0.29143 1.9551 0 6.6078 3.3039 25.375-2.7582 32.584-4.5605 2.1683-0.54206 4.2341 0.48714 5.8652 1.3027 0.58286 0.29143 1.3368-0.20608 1.9551 0 0.29143 0.0971 0.36091 0.55524 0.65235 0.65234 0.61822 0.20607 1.3722-0.29144 1.9551 0 1.3187 0.65934 1.7005 1.436 3.2578 1.9551 2.3717 0.79057-2.7883-1.5811 1.9551 0 0.29143 0.0971 0.35896 0.55329 0.65039 0.65039 0.93195 0.31066 3.0338-0.14605 3.9102 0 4.9717 0.82862 10.034 0.9908 14.988 0 0.63901-0.1278 1.3368 0.20608 1.9551 0 1.9229-0.64095 3.4005-1.8797 5.2148-2.6055 4.6389-1.8555 8.8886-4.0937 11.078-8.4726 0.61147-1.223 2.0965-0.93719 2.6055-1.9551 0.6195-1.239 2.6624-5.2394 3.9102-5.8633 1.7408-0.87042 2.2292 0.92451 2.6074 1.3027 0.3072 0.3072 0.99554-0.3072 1.3027 0 0.1536 0.1536-0.15359 0.49875 0 0.65235 0.30125 0.30124 1.5616-0.19673 1.9551 0 2.0596 1.0298 7.6419 2.2313 10.428 1.3027 1.2895-0.42984 2.0799-1.8221 3.2578-2.6074 1.827-1.218 4.4812-3.0964 6.5156-3.9102 0.96222-0.38489 3.0429-0.21675 3.9102-0.65039 0.27476-0.13738 0.36091-0.55524 0.65234-0.65234 1.0304-0.34346 2.1928 0.21301 3.2578 0 6.2917-1.2583-5.3418-0.074 3.2598-1.3027 0.86015-0.12288 1.7366 0 2.6055 0 0.43445-0.21722 0.82645-0.55704 1.3027-0.65234 1.3471-0.26941 3.2482 0.43812 4.5625 0 1.0035-0.3345 2.0628-1.0637 3.2578-1.3027 0.56382-0.11277 5.9543-0.56328 6.5176 0 0.1536 0.1536-0.18072 0.5299 0 0.65039 0.57155 0.38104 1.4056 0.24019 1.9551 0.65234 0.38858 0.29144 0.30693 0.95928 0.65039 1.3027 0.73856 0.73856 2.0674 0.87503 2.6074 1.9551 0.0971 0.19429-0.1536 0.49876 0 0.65235 0.1536 0.1536 0.45805-0.0971 0.65234 0 0.79729 0.39865 0.82651 1.3201 1.3027 1.9551 3.5156 4.6874-0.72283-1.3752 2.6074 1.9551 1.0449 1.0449 1.1912 2.7643 1.9551 3.9102 0.12049 0.18074 0.49679-0.1536 0.65039 0s-0.1536 0.49679 0 0.65039c0.39623 0.39623 2.5349 1.2322 3.2578 1.9551 0.34346 0.34346 0.30888 0.96124 0.65234 1.3047 0.95584 0.95583 3.2126 2.1555 4.5625 2.6055 0.57739 0.19247 1.356-0.11981 1.9551 0 2.9288 0.58576 3.8552 0.88683 6.5156 0 2.0074-0.66915 5.6586-0.10997 7.8203-0.65039 4.6304-1.1576 8.9873-2.9964 13.686-4.5625 1.4837-0.49458 3.0774-0.15794 4.5606-0.65234 2.3553-0.78511 4.684-1.9551 7.1699-1.9551 0.55641 0 4.151-0.40955 4.5606 0 0.43004 0.43004 0.92071 2.0902 1.9551 2.6074 0.38858 0.19429 0.91415-0.19429 1.3027 0 0.83443 0.41721 1.7385 1.0131 2.6074 1.3027 1.5286 0.50955 4.2259 0 5.8652 0 0.43444 0 0.99553 0.3072 1.3027 0 0.1536-0.1536-0.1536-0.49679 0-0.65039 0.3072-0.30719 0.89254 0.13739 1.3047 0 2.3332-0.77773 4.4182-2.2111 6.5156-3.2598 0.38858-0.19429 0.91416 0.19429 1.3027 0 0.99808-0.49904 0.51097-1.1594 1.3047-1.9531 0.65937-0.65939 2.6216-0.92295 3.2578-1.3047 1.6217-0.97303 2.9408-2.9371 4.5625-3.9102 1.5239-0.91435 3.1281-1.2388 4.5606-1.9551 0.8074-0.40371 2.3702 0.17752 3.2578 0 3.4749-0.69497 6.8639-1.446 10.428-1.9551 0.41189-0.0588 6.3929-0.5277 6.5156-0.65039 0.1536-0.1536-0.1536-0.49875 0-0.65235 0.48573-0.48572 1.4056-0.24019 1.9551-0.65234 1.2531-0.93985 2.687-1.6269 3.9102-2.6055 0.37928-0.30343 0.3089-0.96123 0.65235-1.3047s0.89858-0.38096 1.3027-0.65039c0.2556-0.1704 0.43511-0.43511 0.65234-0.65234 0-0.21722-0.1536-0.49679 0-0.65039s0.49679 0.1536 0.65039 0c0.0884-0.0884-0.27792-1.7305 0.65235-1.3047 0.40415-0.26943 0.95927-0.30694 1.3027-0.65039 0.68691-0.68692 0.61777-1.9205 1.3047-2.6074 1.5828-1.5828 0.957 0.19438 1.9551-1.3027 0.26943-0.40415 0.30693-0.96123 0.65039-1.3047 0.1536-0.15358 0.45805 0.0971 0.65234 0 0.87281-0.43639 0.90238-1.5547 1.3027-1.9551 0.54425-0.54425 2.3079-1.356 2.6074-1.9551 0.83073-1.6615 0.79733-0.79538 2.6074-2.6055 0.34346-0.34345 0.30693-0.96123 0.65039-1.3047 0.1536-0.1536 0.49876 0.1536 0.65234 0 1.5828-1.5828-0.19438-0.95505 1.3027-1.9531 0.80829-0.53886 1.9205-0.61777 2.6074-1.3047 1.626-1.626 5.5894-0.0256 7.8196-1.1406 0.6144-0.3072 1.366-0.29698 1.9551-0.6504 2.9296-1.7578 0.0145-0.6668 1.9551-2.6074 0.26558-0.26558 3.5586-3.082 3.9102-3.2578 0.19429-0.0972 0.49875 0.15359 0.65235 0 0.34346-0.34346 0.30693-0.96123 0.65039-1.3047s1.3678 0.6406 1.3027-0.65039c1.6972-2.5457 3.4074-7.968 5.2148-9.7754 3.2629-3.2629-0.99744 3.3974 2.6055-2.6074 1.2324-2.0541 1.7865-2.7155 2.8516-4.8457 1.356-2.7121 2.0326-1.4017 3.3809-2.75 0.1536-0.1536 5.3052-0.51848 5.4588-0.67208 0.70327-0.70328 3.3262-0.37378 5.2522-0.85527 0.47122-0.1178 2.9463 1.237 3.4226 1.1417 1.7478-0.34955 2.049-1.226 3.7473-1.7921 0.81983-0.27328 1.644-0.98419 2.6055-1.3047 2.2127-0.73756 2.6044-5.375 4.5613-6.6797 0.86898-0.57932 1.6374-2.1205 2.6074-2.6055 0.38858-0.19429 0.99553 0.3072 1.3027 0 0.1536-0.1536-0.0971-0.45806 0-0.65235 0.32835-0.65667 1.0161-0.54655 1.9551-1.9551 0.49756-0.74634 1.1637-0.90705 1.9551-1.3027 0.24099-0.36148-0.24098-0.94321 0-1.3047 0.26943-0.40413 1.0333-0.24625 1.3027-0.65039 0.24098-0.36148-0.13739-0.89058 0-1.3027 0.58135-1.744 2.4782-2.9994 3.2598-4.5625 0.95823-1.9165 1.394-4.2732 1.9551-6.5176 0.42247-1.6899 1e-5 -4.1046 0-5.8633 0-2.8906-0.0157-5.1558 0.6504-7.8203 0.44962-1.7985-0.30102-4.0591 0-5.8652 0.0799-0.47912 0.49874-0.84194 0.65234-1.3027 0.4595-1.3785 0.0939-2.8871 0.65234-4.5625 0.68356-2.0507 0.20563-6.7567-0.65234-8.4727-0.94398-1.8879 0.6705-5.1565 0-7.168-0.0971-0.29143-0.51495-0.37562-0.65234-0.65039-0.34755-0.6951 0.34755-1.9123 0-2.6074l-1.9551-3.9102c-0.28202-0.56402-0.28885-3.5486-0.65039-3.9102-0.1536-0.1536-0.49875 0.1536-0.65235 0-0.4608-0.4608 0.29143-1.3722 0-1.9551-0.0971-0.19429-0.49874 0.15359-0.65234 0-0.77744-0.77744 0.52676-3.507 0-4.5606-1.0903-2.1806-1.9455-5.2072-3.9082-7.1699-0.1536-0.1536-0.49875 0.1536-0.65235 0-0.32584-0.32583-0.32651-0.9769-0.65234-1.3027-0.27464-0.27464-3.4636-0.5035-3.9102-0.65235-0.29144-0.0971-0.37562-0.51301-0.65039-0.65039-0.6966-0.3483-0.6081 0.34829-1.3047 0-0.94085-0.47044-1.6646-0.83425-2.6055-1.3047-0.76464-0.38232-2.6187-9e-3 -3.2598-0.6504-0.1536-0.15358 0.1536-0.49874 0-0.65234-0.21722-0.21723-1.7379-0.43317-1.9551-0.65039-0.1536-0.1536 0.1536-0.49874 0-0.65234s-0.43317 0-0.65039 0c-0.21722-0.43444-0.43511-0.8683-0.65234-1.3027-0.1536-0.1536-0.49679 0.1536-0.65039 0s0.0971-0.45805 0-0.65234c-0.27477-0.54953-1.0299-0.75321-1.3047-1.3027-0.31628-0.63256 2.3528-10.937 1.3047-13.033-0.37354-0.74708-1.3598-0.90783-1.9551-1.3047-0.9037-0.60246-1.7385-1.3034-2.6074-1.9551 0.21722-0.86889 0.65234-1.7098 0.65234-2.6055 0-0.68226-7.0896-1.0177-7.8203-0.65235-0.19429 0.0971 0.1536 0.49876 0 0.65235-0.1536 0.1536-0.45806-0.0971-0.65235 0-0.87279 0.43641-0.90236 1.5547-1.3027 1.9551-0.42666 0.42666-1.506 0.40468-1.9551 1.3027-0.80251 1.605 1.8909-0.58819-0.65234 1.9551-0.43005 0.43004-2.0883 0.92072-2.6055 1.9551-1.9656 3.9312-5.2148 6.8621-5.2148 11.73 0 0.28987-0.20221 2.2011 0 2.6055 2.4178 4.8355 12.649 2.221 13.686 3.2578 0.1536 0.1536-0.1536 0.49874 0 0.65234s0.49875-0.1536 0.65235 0c0.69074 0.69075 0.69545 2.3469 1.3027 3.2578 0.64594 0.96891 1.6733 2.783 1.9551 3.9102 0.6065 2.426-0.0888 14.407-0.65235 16.943-0.30716 1.3823-2.4941 5.5736-3.9102 6.5176-1.0507 0.70045-2.0625 0.2539-3.2578 0.65234-0.29144 0.0971-0.35432 0.57589-0.65235 0.65039-0.63221 0.15806-1.3209-0.15805-1.9531 0-0.29803 0.0745-0.36712 0.53825-0.65235 0.65234-2.1503 0.86014-4.3212 0.57061-6.5176 1.3027-3.3587 1.1196-7.7284 4.4946-10.426 6.5176-2.0569 1.5427-0.81309-0.48965-3.2578 1.9551-0.41703 0.41702-1.7692 2.7002-1.9551 3.2578-0.13738 0.41215 0.10537 0.88126 0 1.3027-0.23561 0.94244-1.1142 1.6548-1.3047 2.6074-0.1278 0.63901 0.15805 1.3229 0 1.9551-0.0745 0.29803-0.55329 0.35895-0.65039 0.65039-0.26673 0.8002 0.55845 2.7742-0.65235 3.2598-0.73006 1.8251-1.8533 3.4532-2.6074 5.2129-0.35281 0.82322-0.24985 1.8064-0.65039 2.6074-0.27477 0.54954-0.98858 0.7759-1.3047 1.3027-0.35341 0.58902-0.23824 1.4055-0.65039 1.9551-0.29144 0.38858-0.96123 0.30693-1.3047 0.65039-0.96602 0.96603-1.6394 2.9441-2.6055 3.9102-1.3566 1.3566-3.5664 1.7842-5.2129 2.6074-1.401 0.70052-2.567 1.8015-3.9102 2.6074-1.9758 1.1855-4.3888 1.7539-6.5176 2.6055-0.90197 0.36078-1.663 1.0691-2.6055 1.3047-0.42147 0.10537-0.89254-0.13738-1.3047 0-0.29144 0.0971-0.35896 0.55329-0.65039 0.65039-0.9171 0.3057-5.4633 0.52716-6.5176 0-2.2249-1.1125 2.0147-0.65039-2.6074-0.65039-0.79289-0.19822-1.8845-1.4744-2.6055-1.9551-0.40414-0.26943-0.86828-0.43512-1.3027-0.65234-0.21722 0-0.45806 0.0971-0.65234 0-0.66397-0.33198-1.4264-1.4264-1.9551-1.9551-2.6682-2.6682-3.1645-3.2896-7.168-1.9551-0.61822 0.20607-1.3229-0.15805-1.9551 0-1.011 0.25274-5.2387 2.1375-5.8652 2.6074-0.38858 0.29143-0.30889 0.95928-0.65235 1.3027-1.4945 1.4945-3.9192 1.9696-5.2129 3.9102-0.26943 0.40414-0.30888 0.95928-0.65234 1.3027-0.68691 0.68692-1.8283 0.71986-2.6055 1.3027-2.2803 1.7102-0.52782 0.70443-1.9551 2.6074-0.61968 0.82625-1.7683 1.8705-2.8086 2.8711-2.433-1.2251-5.4247-1.853-7.6191-2.2188-1.3552-0.22586-2.555-1.0788-3.9102-1.3047-2.0676-0.3446-4.4948-0.14519-6.5156-0.65039-8.3498-2.0874-0.28607-0.5296-4.5625-1.9551-1.5988-0.53293-3.5403-0.31782-5.2129-0.65234-2.1928-0.43857-4.4571-1.2689-6.5156-1.9551-0.5865-0.1955-1.3686 0.1955-1.9551 0-0.29144-0.0971-0.35431-0.57589-0.65234-0.65039-0.63221-0.15805-1.3161 0.1278-1.9551 0-1.4756-0.29513-3.0837-1.0934-4.5625-1.3047-1.0752-0.1536-2.1801 0.13471-3.2578 0-1.5892-0.19866-3.065-0.92884-4.5606-1.3027-2.3185-0.57966-4.7975-0.25695-7.1699-0.65235-2.7414-0.45689-5.7488-0.75835-8.4707-1.3027-1.3472-0.26943-2.555-1.0769-3.9102-1.3027-0.6428-0.10712-1.3161 0.1278-1.9551 0-0.95257-0.1905-1.665-1.0691-2.6074-1.3047-0.42147-0.10537-0.89937 0.16135-1.3027 0-0.72719-0.29087-1.3034-0.8683-1.9551-1.3027-0.21722-0.21723-0.37759-0.51496-0.65235-0.65234-2.2357-1.1178-5.2935-1.3833-7.168-3.2578-0.34344-0.34346-0.30693-0.95928-0.65039-1.3027-0.5538-0.5538-1.3034-0.87024-1.9551-1.3047-0.21722 0-0.49875 0.1536-0.65235 0-0.34346-0.34343-0.30888-0.95927-0.65234-1.3027-1.5042-1.5042-2.9952-1.3011-4.5606-3.2578-0.76778-0.95974-1.2168-2.2734-1.9551-3.2578-0.65166-0.86889-1.1871-1.8394-1.9551-2.6074-0.34346-0.34345-0.95929-0.30888-1.3027-0.65234-0.68692-0.68692-0.76583-1.7972-1.3047-2.6055-3.5845-5.3768-6.2021-11.101-9.123-16.943-1.8388-3.6777-3.5847-6.5165-4.5625-10.428-0.50432-2.0173-0.84028-0.75072-1.9531-2.6055-0.9672-1.612-1.96-4.7911-2.6074-6.5176-1.6612-4.4298-0.0328-0.8434-0.65234-4.5606-0.39318-2.359-2.2123-4.1585-2.6055-6.5176-0.10713-0.6428 0.24202-1.35 0-1.9551-0.22818-0.57045-1.0299-0.75321-1.3047-1.3027-0.76897-1.5379-0.53378-3.0246-1.3027-4.5625-0.35026-0.70051-1.0551-1.2121-1.3027-1.9551-0.20608-0.6182 0.1278-1.3161 0-1.9551-0.44319-2.2159-2.7399-3.7859-3.2598-5.8652-0.15805-0.6322 0.20607-1.3368 0-1.9551-1.5625-4.6874-0.65039-10.681-0.6504-15.639 1e-5 -2.5155-0.4875-5.3827 0-7.8203 0.0953-0.47629 0.5326-0.83152 0.6504-1.3027 0.22615-0.90465-0.4153-2.4292 0-3.2598 0.77059-1.5412 0.76979-2.3055 1.3047-3.9102 0.0971-0.29143 0.51301-0.37562 0.65039-0.65039 0.94536-1.8907 1.4698-3.9242 1.9551-5.8652 0.1269-0.5076 1.1778-2.0998 1.3047-2.6074 1.1569-4.6278-0.94961-10.891 0-15.639 0.12548-0.6274 2.4251-8.1721 2.6055-8.4726 0.3161-0.52684 0.98859-0.7759 1.3047-1.3027 1.4258-2.3763 2.7076-5.7215 3.2578-8.4726 0.41009-2.0505 1.4332-3.7778 1.9551-5.8652 0.50228-2.0091 0.82626-3.9574 1.3027-5.8633 0.1178-0.47122 0.43513-0.87024 0.65234-1.3047 0.21723-0.2172 0.55331-0.35896 0.65039-0.65039 0.31463-0.94389 0.19077-2.3366 0.65235-3.2598 0.70805-1.4161 1.6701-2.8506 1.9551-4.5606 0.10713-0.64279-0.15805-1.3229 0-1.9551 0.18995-0.75982 1.7868-0.74903 1.3027-1.9551 0.12781-0.63901-0.15805-1.3229 0-1.9551 0.0745-0.29802 0.55526-0.36092 0.65234-0.65235 0.13738-0.41214-0.13736-0.89058 0-1.3027 0.22399-0.67196 1.0379-1.293 1.3027-1.9551 0.45528-1.1382 0.9346-4.1924 1.9551-5.2129 0.1536-0.1536 0.45805 0.0971 0.65234 0 1.2523-0.62613 2.0056-1.9813 3.2578-2.6074 1.0098-0.50487 2.9869-1.0318 3.9102-1.9551 0.34346-0.34346 0.36092-0.91416 0.65234-1.3027 0.94594-1.2612 3.1506-3.8575 4.5606-4.5625 0.19429-0.0971 0.49875 0.15359 0.65234 0 0.31114-0.31115 0.96343-2.153 1.3027-2.6055 0.73728-0.98304 1.8702-1.6244 2.6074-2.6074 0.81389-1.0852 0.99996-2.955 1.9551-3.9102 0.34346-0.34346 1.0333-0.24821 1.3027-0.65234 0.24099-0.36148-0.13738-0.89059 0-1.3027 0.85223-2.5567 2.9562-4.7831 3.9102-7.168 3.0222-7.5554-0.44641 0.48485 0.65234-3.9102 0.66392-2.6557 2.328-8.101 4.5606-9.7754 0.58126-0.43594 2.7447-2.3479 3.2598-2.6055 0.38857-0.19429 0.91415 0.19429 1.3027 0 0.54954-0.27477 0.7532-1.0299 1.3027-1.3047 0.38858-0.19429 0.88322 0.10536 1.3047 0 3.1827-0.79568 5.7509-3.3481 9.123-3.9102 3.8315-0.63856 0.083 0.88048 3.9102-0.65039 3.5302-1.4121-1.163 0.30603 2.6055-1.9551 2.6501-1.59 1.4383 0.5168 3.9102-1.9551 1.6956-1.6956 2.6708-3.7152 5.2129-4.5625 2.88-0.96 5.6999-1.2191 8.4727-2.6055 4.761-2.3805 9.5665-5.7043 14.988-6.5176 7.6036-1.1405 7.6277 1.1693 15.641 0.65234 3.9557-0.25521 7.8185-1.3034 11.729-1.9551 0.42148 0.10535 0.89254-0.13738 1.3047 0 0.0893 0.0297 0.13141 0.13475 0.19921 0.19921 0.15359 0.14601 0.30049 0.30049 0.45118 0.45118 0 0.21721-0.19429 0.55524 0 0.65234 0.76487 0.38244 3.4656 0.64463 4.5625 1.3027 2.2035 1.3221 3.8202 3.6811 5.8652 5.2148 2.9974 2.2481-0.68491-1.3258 3.2578 1.3027 0.51234 0.34156 1.0474 2.8886 1.3027 3.9102 0.48072 1.9229 1.6008 3.0872 1.9551 5.2129 0.93862 5.6317-1.7288 14.788 0.65234 19.551 0.19429 0.38857-0.3072 0.99554 0 1.3027 0.64251 0.64251 3.5354-0.55864 3.9102-0.65234 0.45906-0.11477 2.4926-0.53749 2.6055-0.65039 0.1536-0.1536-0.19427-0.55524 0-0.65234 0.38858-0.19429 0.91611 0.19429 1.3047 0 0.12029-0.0601 0.53474-1.7238 0.65039-1.9551 0.27476-0.54954 0.96388-0.79153 1.3047-1.3027 0.38103-0.57154 0.16466-1.4694 0.65039-1.9551 0.1536-0.1536 0.49876 0.1536 0.65234 0 0.15359-0.1536-0.15358-0.49875 0-0.65235 0.30719-0.3072 0.86829 0 1.3027 0 1.5577 0 5.172-0.67279 6.5176 0 0.19429 0.0971-0.1536 0.49875 0 0.65235 0.3072 0.30719 1.1084-0.38858 1.3027 0 0.31888 0.63775 0.36124 5.1427 0 5.8652-0.54003 1.08-1.8669 1.2165-2.6055 1.9551-0.4608 0.4608 0 1.3034 0 1.9551 0 2.2132-0.15857 3.0992 1.3027 4.5605 0.3072 0.3072 0.99553-0.3072 1.3027 0 0.1536 0.1536-0.1536 0.49875 0 0.65235 0.6333 0.63325 1.8909 0.11302 2.6074 0.65039 0.38858 0.29144 0.24626 1.0353 0.65039 1.3047 0.36148 0.24099 0.91611-0.19427 1.3047 0 0.23522 0.11761-0.57074 1.7918-0.65234 1.9551-0.8049 1.6098-3.8729 1.9355-5.2129 2.6055-1.315 0.65749-2.5289 1.4947-3.9102 1.9551-0.41215 0.13739-0.89058-0.13738-1.3027 0-0.58286 0.19429-0.75516 1.0299-1.3047 1.3047-1.2637 0.63185-5.0296 1.1194-5.8652 1.9551-0.15358 0.1536 0.1536 0.49679 0 0.65039-0.30717 0.30719-0.91415-0.19429-1.3027 0-0.91739 0.45868-1.8391 2.0326-2.6055 2.6074-0.38858 0.29144-1.0353 0.24624-1.3047 0.65039-0.24098 0.36148 0.13738 0.89254 0 1.3047-0.35294 1.0588-1.6254 1.2868-1.9551 2.6055-0.19662 0.78649-0.37962 4.4556 0 5.2148 0.75633 1.5127 6.4226 6.8865 7.8203 7.8184 0.36148 0.24099 0.91415-0.19429 1.3027 0 1.6825 0.84124 3.5564 1.1259 5.2148 1.9551 1.4409 0.72043 0.20095 0.4058 0.65039 1.3047 0.13739 0.27476 0.51496 0.37564 0.65234 0.65039 0.10285 0.2057 0.14096 2.4665 0 2.6074-0.1536 0.1536-0.49874-0.1536-0.65234 0-0.0164 0.0165-0.80618 6.1145 0 6.5176 0.98824 0.49412 6.2319 0.46901 7.1699 0 0.75911-0.37955 1.194-0.92512 1.9531-1.3047 0.38858-0.19429 0.99749 0.3072 1.3047 0 1.2639-1.2639 0.72085-3.3968 1.3027-4.5606 0.13739-0.27477 0.55524-0.3609 0.65234-0.65234 0.3282-0.98461-0.25242-2.2481 0-3.2578 0.39486-1.5794 0.95609-3.8809 1.9551-5.2129 0.36864-0.49152 1.028-0.75515 1.3027-1.3047 0.4866-0.9732 0.15829-2.922 0.65235-3.9102 1.4605-2.9211 3.6598-6.0168 5.2129-9.123 0.62319-1.2464 1.889-2.0605 2.6074-3.2578 0.90137-1.5023 0.82948-2.4904 1.3027-3.9102 0.67803-2.034 0.43385 0.21655 1.3027-0.65234 0.67253-0.67253 0.94633-1.8927 1.3027-2.6055 0.391-0.782 1.5641-1.1731 1.9551-1.9551 0.0971-0.19429-0.1536-0.49874 0-0.65234 0.34345-0.34346 0.90054-0.38292 1.3047-0.65234 0.25561-0.17041 0.43317-0.43318 0.65039-0.6504 0-0.2172-0.1536-0.49874 0-0.65234s0.49875 0.1536 0.65234 0c0.1536-0.1536-0.15359-0.49874 0-0.65234 1.4749-1.4749 3.4612-2.3578 4.5625-4.5606 0.98452-1.969 1.3863-5.5454 1.9551-7.8203 0.10537-0.42148-0.19429-0.91416 0-1.3027 0.27476-0.54952 1.028-0.75516 1.3027-1.3047 0.19748-0.39495 0.37927-1.682 0.65235-1.9551 0.34346-0.34346 1.0113-0.26181 1.3027-0.65039 0.41215-0.54954 0.23824-1.4056 0.65039-1.9551 0.0491-0.0655 3.0884-2.5217 3.2598-2.6074 1.1777-0.58885 7.8207-3.2602 8.4707-3.9102 0.1536-0.1536-0.1536-0.49679 0-0.65039 0.68819-0.68819 3.097-1.0336 3.9102-1.3047 1.1439-0.3813 2.1684-1.4104 3.2578-1.9551 0.19429-0.0971 0.49874 0.1536 0.65234 0 0.1536-0.15358-0.1536-0.49679 0-0.65039 0.40036-0.40035 1.5187-0.43188 1.9551-1.3047 0.67768-1.3554 1.7067-2.559 2.6074-3.9102 0.73762-1.1064 0.76954-2.1914 1.3027-3.2578 0.37243-0.74486 0.25979-5.3457 0-5.8652-0.0971-0.19429-0.49875 0.1536-0.65235 0-0.30718-0.3072 0.19429-0.91415 0-1.3027-1.0009-2.0018-1.8583-4.2742-2.6055-6.5156-0.32584-0.97748 0.65166-0.65175 0-1.9551-0.0971-0.19429-0.49875 0.1536-0.65235 0s0.0971-0.45806 0-0.65235c-0.13738-0.27477-0.55524-0.36091-0.65234-0.65234-0.21499-0.64499-0.14109-2.0962-0.65039-2.6055-0.1536-0.1536-0.49875 0.1536-0.65235 0s0.1536-0.49874 0-0.65234-0.45805 0.0971-0.65234 0c-0.91992-0.45996-0.96664-1.2829-1.3027-1.9551-0.54003-1.08-1.8669-1.2165-2.6055-1.9551-0.34346-0.34346-0.38292-0.89859-0.65235-1.3027-0.1704-0.2556-0.43511-0.43512-0.65234-0.65234-0.21722 0-0.49679 0.1536-0.65039 0-0.1536-0.1536 0.1536-0.49874 0-0.65234s-0.49874 0.1536-0.65234 0 0.1536-0.49679 0-0.65039c-0.32583-0.32583-1.6292 0.32583-1.9551 0-0.1536-0.1536 0.1536-0.49874 0-0.65234-0.4608-0.4608-1.3722 0.29143-1.9551 0-0.19429-0.09714 0.15359-0.49874 0-0.65234-0.30125-0.30124-1.5616 0.19673-1.9551 0-0.41715-0.20858-2.3421-1.0374-2.6074-1.3027-0.34345-0.34346-0.30693-0.95928-0.65039-1.3027-0.52466-0.52465-2.4643-0.90502-3.2598-1.3027-0.82429-0.41215-1.2158-1.4021-1.9531-1.9551-0.86889-0.65166-1.636-1.4694-2.6074-1.9551-0.38858-0.19429-0.91417 0.19429-1.3027 0-0.54954-0.27477-0.77785-0.98858-1.3047-1.3047-1.579-0.94742-3.6914-0.81399-5.2129-1.9551-1.1441-0.85806-1.4808-1.3918-2.6074-1.9551-0.38858-0.19429-1.1541 0.40822-1.3027 0-0.6883-1.8902-1.1327-0.93472-2.0127-1.1587-0.42631-0.10852-1.5962 0.15724-1.8975-0.144-0.1536-0.1536-1.4016-0.75794-1.5552-0.91154-0.27881-0.2788-1.874-0.10258-2.355-0.39119-0.52682-0.3161-0.77589-0.98858-1.3027-1.3047-1.1781-0.70683-2.6814-0.68834-3.9102-1.3027-1.7145-0.85724-3.502-1.75-5.2129-2.6055-1.8321-0.91606-3.5548-2.4307-5.2129-3.2598-0.99325-0.49663-1.4101-1.7881-1.9551-2.6055-1.8346-2.7519 6.4799-8.5467 4.4946-11.194-0.75996-1.0133-0.77246-2.4959-1.9551-3.2578-0.50476-0.67304 2.0054-2.9985 1.631-3.7472-0.0971-0.19429-1.9643-1.7187-2.1179-1.8723-1.3483-1.3483-2.5553 1.4895-3.9114-1.2226-0.41124-0.82246-6.8078-0.86209-7.575-1.6293-11.716 2.3322-6.9073 4.5927-18.165 2.7701-4.4047-0.81935-14.713-2.0642-18.736-3.3411-1.2337-0.41124-8.1583-4.3234-9.1223-4.8054-1.1101-0.55506-1.424-1.245-2.6074-1.9551-4.1138-1.1918-4.4187-3.1138-5.8652-7.168-0.32583-0.9775 0.65165-0.65175 0-1.9551-0.0971-0.19429-0.49875 0.1536-0.65235 0-0.52013-0.52013 0.34185-2.5741 0-3.2578-0.13738-0.27477-0.51301-0.37758-0.65039-0.65234-0.55657-1.1131-6.7042 1.4758-7.1035 0.27784-0.0971-0.29143-0.55525-0.36091-0.65235-0.65234-0.13738-0.41215 0.13739-0.89059 0-1.3027-0.32432-0.97298-2.0287-1.7422-2.6055-2.6074-2.2432-3.3649-5.0162-6.1413-9.123-7.168-0.81508-0.20377-1.8096 0.26594-2.6074 0-0.29143-0.09714-0.35433-0.57783-0.65235-0.65234-0.63221-0.15805-1.3229 0.15805-1.9551 0-0.29801-0.07451-0.35896-0.5552-0.65039-0.65234-2.4019-0.80062-7.1784-1.3027-9.7754-1.3027-1.4886 0-4.0409-0.36728-6.0508-0.27539zm48.133 49.129c0.85661-0.01065 1.5483 0.08222 1.8887 0.34961 1.3877 1.0901 7.5417 2.1728 10.539 4.6621 1.3201 1.0963 4.4471 4.278 4.0742 5.5879-0.41859 1.4705-3.954 4.7158-9.9082 4.7012-0.69311-0.0017-2.8109-3.2885-3.582-3.0957-0.6322 0.15805-3.5641-1.3954-4.2031-1.2676-0.8648 0.17296-4.0791 1.4717-4.5606 1.9531-0.1536 0.1536 0.1536 0.49875 0 0.65234-0.4608 0.4608-1.3161-0.1278-1.9551 0-1.8679 0.37359-1.9609 0.65329-3.2598 1.3027-1.0036 0.50181-42.492 5.5275-43.496 6.0293-0.83442 0.41721-1.7385 1.0131-2.6074 1.3027-0.8243 0.27477-1.7645-0.21074-2.6074 0-3.1468 0.78671 0.0322 0.31104-1.9551 1.3047-0.99069 0.49534-2.1928 0.3461-3.2578 0.65039-0.93407 0.26688-1.665 1.0691-2.6074 1.3047-0.63221 0.15805-1.3209-0.15805-1.9531 0-0.29802 0.07451-0.35431 0.57588-0.65234 0.65039-1.6877 0.42193-3.4886 0.36496-5.2129 0.65234-2.2428 0.3738-4.348 1.5212-6.5176 1.9551-2.4323 0.48647-2.1129-0.32671-4.5606 0.65234-0.72718 0.29087-1.2279 1.0119-1.9551 1.3027-0.15787 0.06315-7.4875 1.8996-7.8203 1.9551-1.1852 0.19753-4.877 0.15826-5.8652 0.65234-1.6295 0.81476-3.9809 1.482-5.8652 1.9531-0.55027 0.13757-2.0377-0.28484-2.6074 0-1.6482 0.82412-3.4718 0.72432-5.2129 1.3047-0.58287 0.19429-0.75319 1.028-1.3027 1.3027-0.39346 0.19673-1.6538-0.30124-1.9551 0-0.1536 0.1536 0.1536 0.49874 0 0.65234-0.84135 0.84135-4.3164 1.0585-5.2129 1.9551-0.34346 0.34346-0.30889 0.95928-0.65235 1.3027-0.50872 0.50874-5.3565 2.0987-5.8652 2.6074-1.3483 1.3483 2.0597-0.0533-0.65234 1.3027-1.605 0.80251 0.58819-1.8909-1.9551 0.65235-0.34346 0.34346-0.38096 0.89858-0.65039 1.3027-0.69617 1.0442-2.4079 1.4451-3.2578 1.9551-1.3518 0.81107-0.9378 1.4924-2.6074 2.6055-1.4971 0.99808 0.28003 0.37231-1.3027 1.9551-1.3483 1.3483 0.0513-2.0597-1.3047 0.65234-0.81775 1.6355-1.5125 3.5734-2.6055 5.2129-0.43445 0.65167-1.5206 0.65302-1.9551 1.3047-0.24098 0.36148 0.13738 0.89058 0 1.3027-0.19429 0.58287-0.96387 0.79153-1.3047 1.3027-0.80028 1.2004-1.3513 2.7027-1.9551 3.9102-0.40054 0.80108-0.31776 1.7759-0.65039 2.6074-0.70572 1.7643-1.8274 3.0005-2.6074 4.5605-0.48489 0.96977-0.56194 3.8217-1.3027 4.5625-0.1536 0.1536-0.49874-0.1536-0.65234 0-0.30124 0.30125 0.19673 1.5616 0 1.9551-0.47043 0.94088-0.83231 1.6646-1.3027 2.6055-0.5553 1.1106 0 3.9278 0 5.2148 0 4.9713 0.29076-0.51458-0.65234 3.2578-0.16442 0.65768-0.1627 1.4373-0.12305 2.2226-1.5005 2.7723-2.8952 6.5347-3.7871 9.5078-0.31826 1.0609-0.26148 2.2207-0.65039 3.2578-0.27499 0.73332-0.99618 1.2352-1.3047 1.9551-1.0408 2.4285-1.13 5.345-1.9551 7.8203-0.30719 0.92159-1.0359 1.6714-1.3027 2.6055-0.17903 0.62658 0.10713 1.3123 0 1.9551-0.36501 2.1901-1.5901 4.3275-1.9551 6.5176-0.10712 0.6428 0.15805 1.3229 0 1.9551-0.28369 1.1348-1.049 2.1159-1.3027 3.2578-0.64085 2.8837-0.42626 6.8364-0.65234 9.7754-0.50321 6.5416-2.1377 13.002-2.6055 19.551-0.17611 2.4656-0.22098 4.9589-0.27539 7.4512-0.11939 0.1253-0.27629 0.23297-0.37696 0.36718-1.2345-0.0742-0.43511 1.5206-0.65234 1.9551-0.27476 0.54954-1.028 0.75515-1.3027 1.3047-0.39983 0.79964-0.71316 1.7211-1.3027 2.6055-0.42254 0.6338-1.717 1.2409-1.9551 1.9551-0.13738 0.41214 0.19429 0.91612 0 1.3047-0.27476 0.54954-0.93605 0.81122-1.3047 1.3027-0.29144 0.38858-0.30694 0.95928-0.65039 1.3027-0.1536 0.1536-0.49875-0.1536-0.65235 0-0.6087 0.60871-0.69403 2.6491-1.3027 3.2578-0.34346 0.34345-0.96123 0.30889-1.3047 0.65234 0 0.43445 0.24099 0.94126 0 1.3027-0.26943 0.40415-1.0113 0.26377-1.3027 0.65235-0.41215 0.54952-0.3432 1.3407-0.6504 1.9551-1.4196 2.8393-3.1465 5.4182-3.9102 8.4726-0.41145 1.6458-2.0494 2.8865-2.6074 4.5606-0.13738 0.41215 0.13738 0.89059 0 1.3027-0.92526 2.7758-2.0354 6.0279-3.2578 8.4727-0.29142 0.58287 0.20608 1.3369 0 1.9551-0.0971 0.29144-0.51496 0.37757-0.65234 0.65234-0.29144 0.58287 0.15805 1.3209 0 1.9531-0.44486 1.7794-0.94172 3.4098-1.3027 5.2148-0.29537 1.4768-1.653 2.702-1.9551 3.9102-0.15805 0.6322 0.10713 1.3123 0 1.9551-0.21722 0.65166-0.43513 1.3034-0.65235 1.9551-0.21721 0.21722-0.55519 0.35896-0.65234 0.65039-0.27476 0.8243 0.27477 1.7831 0 2.6074-0.0971 0.29143-0.51301 0.37562-0.65039 0.65039-0.29144 0.58286 0.20607 1.3369 0 1.9551-0.0971 0.29144-0.55519 0.36092-0.65234 0.65235-0.5865 1.7595 0.58649 4.1057 0 5.8652-0.41156 1.2347-0.65039 1.0258-0.65039 2.6074 0 1.4163-0.62151 4.6203 0 5.8633 0.51255 1.0251 0.65039 0.73891 0.65039 1.9551 0 2.6583 1.3027 5.0272 1.3027 7.1699 0 2.457 1.5302 3.7108 2.6074 5.8652 0.0971 0.19429-0.1536 0.49679 0 0.65039 0.1536 0.15359 0.49875-0.1536 0.65235 0 0.21721 0.21722 0.43317 1.7378 0.65039 1.9551 0.30719 0.3072 0.87025 0 1.3047 0 1.5789 0 5.1341 0.69078 6.5156 0 0.95039-0.47521 1.0438-1.0419 1.3047-1.3027 0.50929-0.50929 1.9605-0.43735 2.6055-0.65234 0.29142-0.0971 0.35431-0.57589 0.65234-0.65039 1.4751-0.36879 3.0695 0.2982 4.5606 0 0.30122-0.0602 0.37758-0.51496 0.65234-0.65234 0.85012-0.42506 3.0058 0 3.9102 0 0.33562 0 4.1448-0.41774 4.5625 0 0.1536 0.1536-0.12049 0.4716 0 0.65234 0.6816 1.0224 2.0559 1.5064 2.6055 2.6055 0.34447 0.68892 0.28743 1.8776 0.65235 2.6074 0.52133 1.0426 2.0841 1.5628 2.6055 2.6055 0.19748 0.39495 0.37926 1.682 0.65234 1.9551 0.1536 0.1536 0.49876-0.1536 0.65234 0 0.3072 0.3072-0.10535 0.88323 0 1.3047-1.1075 1.7639 0.99554 1.6839 1.3027 2.6055 0.20608 0.61823-0.29143 1.3722 0 1.9551 0.48595 0.9719 1.458 1.6133 1.9551 2.6074 0.0971 0.19429-0.1536 0.4968 0 0.65039 0.21722 0.21722 1.7378 0.43512 1.9551 0.65235 0.15359 0.1536-0.1536 0.49874 0 0.65234 0.15359 0.1536 0.45805-0.0971 0.65234 0 2.7121 1.356-0.69792-0.0456 0.65039 1.3027 0.16069 0.16069 2.7442 1.6114 3.2598 1.9551 1.1239 0.74927 0.6317 1.2934 1.9551 1.9551l3.6328 1.8164c0.53807 0.26904 1.0654 0.53368 1.5801 0.79101 0.38858 0.19429 0.99554-0.30718 1.3027 0 0.7832 0.78321 0.24099 2.2294 0.65234 3.2578 0.32867 0.82166 2.5378 6.2211 2.2461 8.4043-0.0418 0.31314-0.13327 0.56101-0.29102 0.71875-0.1536 0.1536-0.55519-0.19429-0.65234 0-0.19429 0.38858 0.19429 0.91416 0 1.3027-0.0971 0.19429-0.55521-0.19429-0.65235 0-0.73244 1.4649 0.0821 0.49019-0.65039 1.9551-0.26067 0.52133 0.26067 1.4337 0 1.9551-0.81197 1.6239-0.32227 1.1426 1.3027 1.9551 0.38858 0.19429 0.99553-0.3072 1.3027 0 0.32583 0.32583 0.32652 0.97886 0.65234 1.3047 0.1536 0.1536 0.55521-0.19429 0.65235 0 0.51462 1.0292-0.36638 2.809 0 3.9082 0.0971 0.29143 0.55325 0.36092 0.65039 0.65235 0.0314 0.0941 0.19252 3.0653 0 3.2578-0.1536 0.1536-0.49679-0.1536-0.65039 0-0.70478 0.70478-2.1105 2.9163-2.6074 3.9102-0.19429 0.38857 0.3072 0.99748 0 1.3047-0.1536 0.1536-0.49875-0.1536-0.65235 0s0.1536 0.49679 0 0.65039c-0.1536 0.15359-0.49679-0.1536-0.65039 0-0.34346 0.34345-0.30888 0.96123-0.65234 1.3047-0.1536 0.1536-0.49876-0.1536-0.65235 0-0.57837 0.57839-2.1039 2.5055-2.6055 3.2578-0.38104 0.57155-0.16663 1.4694-0.65235 1.9551-0.1536 0.1536-0.45805-0.0971-0.65234 0-0.54953 0.27476-0.71987 1.1084-1.3027 1.3027-4.7434 1.5811 0.41661-0.79057-1.9551 0-1.9433 0.64775-3.5163 2.0419-5.2129 2.6074-0.41215 0.13738-0.89059-0.13738-1.3027 0-1.8255 0.6085-2.9646 2.7118-4.5625 3.9102-0.87914 0.65936-2.4859 1.1831-3.2578 1.9551-0.79372 0.79372-0.30466 1.456-1.3027 1.9551-0.19429 0.0971-0.55519-0.19429-0.65234 0-0.19429 0.38858 0.13739 0.8906 0 1.3027-0.0971 0.29144-0.5552 0.36092-0.65234 0.65235-0.35534 1.066-0.91947 6.0916-0.65039 7.168 0.34105 1.3642 3.6477 0.84632 4.5605 1.3027 1.4606 0.73031 1.1468 2.5275 2.6074 3.2578 1.3872 0.69361 1.9616 0.65886 3.2578 1.9551 1.4517 1.4517 2.4584 3.1108 3.9102 4.5625 0.75814 0.75814 1.3554 0.40317 1.9551 1.3027 0.26943 0.40415 0.2482 1.0333 0.65235 1.3027 0.36147 0.24099 0.94125-0.24098 1.3027 0 0.40415 0.26943 0.26376 1.0132 0.65234 1.3047 0.54953 0.41215 1.3387 0.3432 1.9531 0.65039 3.5505 1.7752 5.031 2.3994 8.4726 3.2598 1.8552 0.46381 3.5617 2.0551 5.2129 2.6055 0.41214 0.13738 0.88321-0.10537 1.3047 0 1.1795-0.39278 1.2101 1.057 1.9531 1.3047 0.95437 0.31813 2.2829-0.24421 3.2598 0 0.47122 0.11781 0.83152 0.53259 1.3027 0.65039 1.3277 0.33193 13.75 0.30966 14.988 0 0.47122-0.1178 0.84194-0.49679 1.3027-0.65039 2.1505-0.71683 5.0194 0.71684 7.1699 0 0.29143-0.0971 0.35896-0.5552 0.65039-0.65234 1.1318-0.37728 2.8576 0.52629 3.9102 0 0.27477-0.13739 0.37758-0.51497 0.65235-0.65235 0.81391-0.40696 9.4094-0.25409 10.426 0 4.2544 1.0636-2.4607 0.35129 3.2598 1.3047 0.6428 0.10714 1.3368-0.20607 1.9551 0 0.74301 0.24768 1.2101 1.0551 1.9531 1.3027 1.3125 0.4375 3.1834 0.30757 4.5625 0.65234 4.2544 1.0636-2.4626 0.34933 3.2578 1.3027 4.1407 0.69012 8.1809 1.9052 12.383 2.6055 4.3167 0.71944 12.067 0.0537 16.291-0.65039 2.1319-0.35532 4.3953-1.5306 6.5176-1.9551 4.4002-0.88004 9.2773 0.22893 13.684-0.65234 2.8999-0.57997 5.6504-1.3906 8.4726-1.9551 0.63902-0.1278 1.3161 0.1278 1.9551 0 0.47629-0.0953 0.82645-0.55513 1.3027-0.65039 1.065-0.213 2.2274 0.34346 3.2578 0 1.4302-0.47674 2.2841-2.2009 3.9102-2.6074 2.8785-0.71964 4.6632-2.0054 7.168-3.2578 0.54765-0.27383 2.2287-0.27362 2.6074-0.65235 0.1536-0.1536-0.1536-0.49874 0-0.65234 0.1536-0.15359 0.44626 0.0687 0.65234 0 1.305-0.43499 2.1086-1.572 3.2578-1.9551 0.41215-0.13738 0.88126 0.10537 1.3027 0 1.1795 0.39278 1.2121-1.0551 1.9551-1.3027 0.94388-0.31464 2.3366-0.19078 3.2598-0.65235 0.68374-0.34187 2.3016-1.3027 2.6055-1.3027 2.1575 0 4.0887 0.23789 5.8652-0.65039 0.46458-0.23229 6.8374-0.40661 7.8203-0.65235 0.94243-0.2356 1.665-1.0671 2.6074-1.3027 0.84294-0.21074 1.7625 0.21073 2.6055 0 4.2544-1.0636-2.4626-0.35128 3.2578-1.3047 1.0713-0.17855 2.1948 0.21301 3.2598 0 6.6779-1.3356 13.345-2.1151 20.201-3.2578 3.2068-0.53448 5.9888-2.0488 8.4707-3.9102 1.7341-1.3005 4.1618-1.3298 5.8652-2.6074 0.98304-0.73727 1.5538-1.9733 2.6074-2.6055 0.58903-0.35341 1.4056-0.24019 1.9551-0.65234 0.3957-0.79139 0.55639-1.4575 1.3027-1.9551 1.3484-0.89892 4.0582-2.7555 5.2129-3.9102 0.1536-0.15358-0.1536-0.49679 0-0.65039 0.1536-0.15359 0.45805 0.0971 0.65234 0 1.4063-0.70311 2.9493-2.0587 3.9102-3.2598 3.1025-3.8781 4.3848-3.3496 7.373-7.334 1.4272-1.903 1.8056-6.0788 4.0859-7.7891 0.38858-0.29143 1.1917-4.053 1.5352-4.3965s2.4378-0.26787 2.7812-0.61133c0.9775-0.9775 1.378-3.7432 2.3555-4.7207 0.1536-0.1536 3.6472-1.9968 3.8008-2.1504 0.18054-0.18054 2.3763-0.94316 6.0137-2.4512 2.1495-0.89116 4.7779 4.9012 5.2891 5.668 1.5439 2.3159-5.6014 15.177-6.5156 17.92-1.5196 4.5588-6.0057 8.7511-10.428 11.404-0.58903 0.35342-8.5735 6.4316-9.123 6.8438-0.38858 0.29143-0.30693 0.95928-0.65039 1.3027-0.68692 0.6869-1.8303 0.71986-2.6074 1.3027-1.7202 1.2902-3.4278 2.7201-5.2129 3.9102-1.4468 0.96453-3.042 1.0428-4.5625 1.9551-0.52684 0.31611-0.7759 0.98858-1.3027 1.3047-1.1126 0.66754-2.1452 0.63519-3.2578 1.3027-1.7034 1.0221-3.4401 2.3704-5.2148 3.2578-2.4329 1.2164-5.3874 1.391-7.8203 2.6074-2.8874 1.4437-5.316 2.3565-8.4707 3.2578-2.3403 0.66865-4.1734 2.789-6.5176 3.2578-0.63901 0.1278-1.3161-0.1278-1.9551 0-1.7875 0.35749-3.6822 2.4944-5.2129 3.2598-2.7465 1.3733-6.1689 2.1834-9.123 2.6055-3.1326 0.44752-5.9176 1.3047-9.123 1.3047-1.9629 0-8.2825-0.74644-9.7754 0-0.27477 0.13738-0.37758 0.513-0.65235 0.65039-1.1526 0.57632-3.3258-0.3087-4.5605 0-1.4768 0.36918-4.878 1.4722-6.5176 0.65234-0.33277-0.16638-0.47031-0.34182-0.63672-0.51367-0.20976 0.39532-0.46607 0.76417-0.66602 1.1641-0.0971 0.19429 0.1536 0.49875 0 0.65235-0.2172 0.21722-1.7378 0.43512-1.9551 0.65234-0.43004 0.43005-0.92071 2.0883-1.9551 2.6055-1.0757 0.53784-2.8158 0.10517-3.9102 0.65234-1.2345 0.61726-3.0577 1.5794-4.5605 1.9551-0.42147 0.10537-0.89254-0.13738-1.3047 0-0.29144 0.0971-0.35236 0.57783-0.65039 0.65234-0.84295 0.21074-1.8303-0.38857-2.6074 0-3.3317 1.6658-7.8968 2.4059-11.73 3.2578-2.3627 0.52505-3.7547 1.9039-5.8652 2.6074-0.58651 0.1955-1.3686-0.19551-1.9551 0-1.5793 0.52645-2.8811 0.88286-4.5605 1.3027-2.2489 0.56223-4.8741-0.38232-7.168 0-3.302 0.55034-7.6194 1.3441-11.078 0.65235-3.6526-0.73054-7.3523-2.0749-11.08-2.6074-1.1144-0.15918-4.8938-0.32919-5.8633-0.65234-0.81982-0.27328-1.6459-0.98223-2.6074-1.3027-0.8243-0.27477-1.7645 0.21073-2.6074 0-0.29802-0.0745-0.35896-0.55521-0.65039-0.65235-0.41216-0.13738-0.88322 0.10537-1.3047 0-1.8005-0.45013-3.393-1.5911-5.2129-1.9551-1.4893-0.29785-3.085-0.15855-4.5606-0.65039-2.1587-0.71955-4.3449-1.4119-6.5176-1.9551-1.206 0.48402-1.1953-1.1147-1.9551-1.3047-4.6221 0-0.38251 0.46206-2.6074-0.65039-1.3563-0.67815-3.7811 0.47728-5.2129 0-3.3374-1.1125 4.3765-0.65235-2.6055-0.65235-2.9798 0-5.5908 0.17203-8.4727 0.65235-1.0713 0.17855-2.2274-0.34346-3.2578 0-0.29143 0.0971-0.35432 0.57589-0.65235 0.65039-2.2489 0.56223-4.9191-0.56222-7.168 0-5.1294 1.2823-10.966 0.65234-16.291 0.65234-2.8782 0-6.2861 0.47283-9.123 0-3.5132-0.58554-8.0967-3.0708-11.08-4.5625-0.54954-0.27477-0.79153-0.96193-1.3027-1.3027-0.80829-0.53887-1.9205-0.61582-2.6074-1.3027-0.32583-0.32583-0.32456-0.9769-0.65039-1.3027-0.1536-0.1536-0.49875 0.1536-0.65235 0-0.15358-0.1536 0.1536-0.49874 0-0.65234-0.40035-0.40037-1.5187-0.42992-1.9551-1.3027-0.0971-0.19429 0.1536-0.49874 0-0.65234-0.32584-0.32584-0.9769-0.32652-1.3027-0.65235-0.1536-0.1536 0.0971-0.4561 0-0.65039-0.27477-0.54953-1.028-0.75516-1.3027-1.3047-0.19429-0.38858 0.3072-0.99554 0-1.3027-0.1536-0.1536-0.43513 0-0.65235 0-0.21721-0.65166-0.34514-1.3407-0.65234-1.9551-1.356-2.7121 0.0456 0.69599-1.3027-0.65234-0.36613-0.36612-0.49566-2.7877-0.65235-3.2578-0.225-0.67501-0.97948-1.3086-1.3027-1.9551-0.33413-0.66827-0.31822-1.9372-0.65235-2.6055-1.722-3.4439 0.41924 2.1392-1.3027-1.3047-0.4674-0.93479-0.64337-2.2688-1.3027-3.2578-0.34081-0.51121-1.0299-0.7532-1.3047-1.3027-0.19748-0.39495-0.37732-1.682-0.65039-1.9551-0.1536-0.1536-0.49875 0.1536-0.65235 0s0.1536-0.49875 0-0.65235c-0.30124-0.30124-1.5616 0.19673-1.9551 0-4.906-2.453-11.407 1.1408-15.641 3.2578-0.69511 0.34756-1.9104-0.34756-2.6055 0-3.1777 1.5888-6.0624 2.6074-9.7754 2.6074-2.0158 0-5.0268 0.37422-5.8652-1.3027-0.882-1.764-0.154-5.0284-0.65039-6.5176-0.0971-0.29143-0.55521-0.36091-0.65235-0.65235-0.52052-1.5615-0.13183-3.6514-0.65234-5.2129-0.0971-0.29144-0.513-0.37562-0.65039-0.65039-0.19429-0.38858 0.3072-0.99749 0-1.3047-0.1536-0.1536-0.49876 0.1536-0.65235 0-0.36612-0.36612-0.49565-2.7877-0.65234-3.2578-0.18279-0.54836-1.5292-3.4842-1.9551-3.9102-0.1536-0.1536-0.49679 0.1536-0.65039 0-0.52465-0.52464-0.90697-2.4624-1.3047-3.2578-0.97039-1.9408-2.9399-3.2724-3.9102-5.2129-0.19429-0.38858 0.10537-0.88322 0-1.3047-0.39018-1.5607-2.1718-1.9568-2.6055-3.2578-0.13738-0.41215 0.19429-0.91415 0-1.3027-0.09715-0.19429-0.49874 0.1536-0.65234 0-0.02457-0.0246-0.61267-3.1843-0.65039-3.2598-1.067-2.134-2.8432-3.7293-3.9102-5.8633-0.72937-1.4587 0-6.2907 0-7.8203 0-3.2085 0.02962-6.0192 0.65039-9.123 0.37042-1.8521-0.23183-3.4465 0.65234-5.2148 0.21722-0.43445 0.30889-0.95928 0.65234-1.3027 0.1536-0.1536 0.55325 0.19429 0.65039 0 0.19429-0.38858-0.19429-0.91415 0-1.3027 0.09714-0.19429 0.49874 0.1536 0.65234 0s-0.09714-0.45806 0-0.65235c0.61432-1.2286 2.0871-1.5707 2.6055-2.6074 0.29955-0.5991 2.0632-1.4108 2.6074-1.9551 0.1536-0.1536-0.09715-0.4561 0-0.65039 0.62613-1.2522 1.9813-2.0055 2.6074-3.2578 0.37743-0.75485 0.28476-1.8762 0.65039-2.6074 0.391-0.782 1.5641-1.1731 1.9551-1.9551 0.0971-0.19429-0.1536-0.49874 0-0.65234 0.76711-0.76712 9.6735 0.75423 10.428 0 0.1536-0.1536-0.1536-0.49679 0-0.65039 0.54306-0.54306 2.7148 0.54306 3.2578 0 0.81291-0.81291-0.98722-4.5838-1.3027-5.2148-1.6572-3.3143-1.277-0.4918-1.9551-4.5605-0.22893-1.3736 0.44331-3.2326 0-4.5625-1.8702-5.6106-1.9551-8.4651-1.9551-14.988 0-5.7594 1.8802-11.433 3.2578-16.943 0.50478-2.0191 2.1081-3.8681 2.6074-5.8652 0.32046-1.2818 0.36376-2.6203 0.65039-3.9102 0.37337-1.6801 1.5546-2.9588 1.9551-4.5605 0.92647-3.7058 2.1762-7.2855 3.2598-11.078 1.5728-5.5046-0.18806 1.5234 1.3027-1.9551 0.56882-1.3272 1.2028-4.3606 1.9551-5.8652 0.27476-0.54953 1.1537-0.70669 1.3027-1.3027 0.59895-2.3958-0.73718-1.4071 0.65235-3.2598 0.36864-0.49152 0.98663-0.7759 1.3027-1.3027 1.2365-2.0608 0.29305-1.7544 0.65235-3.9102 0.42159-2.5296 2.1084-4.6825 2.6055-7.168 0.91587-4.5794-1.9928 4.0253 0.65235-3.9102 0.24767-0.74299 1.0551-1.2121 1.3027-1.9551 0.13739-0.41215 0-0.86829 0-1.3027 0.21722-0.65166 0.39723-1.3173 0.65235-1.9551 0.92334-2.3084 2.1868-4.3755 3.2578-6.5176 0.70044-1.4009 1.0865-3.7652 1.9551-5.2129 0.3161-0.52684 0.9886-0.7759 1.3047-1.3027 1.0482-1.747 2.1146-4.5543 2.6055-6.5176 0.54551-2.182 1.4099-4.3349 1.9551-6.5156 0.18996-0.75982 1.1491-1.1871 1.3027-1.9551 0.1704-0.85202-0.23871-1.772 0-2.6074 0.21516-0.75307 1.057-1.2121 1.3047-1.9551 1.2328-3.6983 1.9562-9.1378 2.6055-13.033 0.30726-1.8436 0.41071-8.1326 0-9.7754-0.0745-0.29803-0.55324-0.35897-0.65039-0.65039-0.69962-2.0989 0-12.903 0-15.641 0-3.9119-0.79369-15.071 0-18.246 0.55952-2.2381 1.5748-5.1086 2.6055-7.1699 0.35026-0.7005 1.057-1.2121 1.3047-1.9551 0.20607-0.61823-0.24203-1.35 0-1.9551 0.22818-0.57046 1.028-0.7532 1.3027-1.3027 0.19429-0.38857-0.19429-0.91415 0-1.3027 0.0971-0.19429 0.49875 0.1536 0.65235 0 0.46079-0.4608-0.29144-1.3722 0-1.9551 0.0971-0.19429 0.43316 0 0.65039 0 0-0.43445-0.13739-0.89058 0-1.3027 0.51854-1.5556 2.3617-2.1396 3.2578-3.2598 0.42912-0.53639 0.34514-1.3407 0.65234-1.9551 0.52388-1.0477 1.2559-0.37046 1.9551-1.3027 1.06-1.4134 2.6782-3.9809 3.9102-5.2129 1.1412-1.1412 2.9826-1.7119 3.9102-3.2578 0.35341-0.58902 0.22323-1.4187 0.65235-1.9551 0.84624-1.0578 3.9594-3.2834 5.2129-3.9102 0.73278-0.36638 1.1831-1.6978 1.9551-1.9551 0.41215-0.13738 0.89058 0.13738 1.3027 0 1.2307-0.41024 2.8002-1.8674 3.9102-2.6074 1.0662-0.71078 3.8454-1.238 4.5625-1.9551 0.34346-0.34346 0.24625-1.0333 0.65039-1.3027 0.36148-0.24098 0.89255 0.13738 1.3047 0 1.2589-0.41962 2.6931-1.8784 3.9082-2.6074 1.2376-0.74254 2.71-1.1549 3.9102-1.9551 2.9987-1.9991-2.6522 1.2105 1.3047-1.9551 0.75857-0.60686 1.7725-0.80293 2.6055-1.3027 3.3901-2.0341-1.1754 0.52502 0.65234-1.3027 0.48573-0.48572 1.3835-0.27131 1.9551-0.65234 0.94202-0.62801 1.2029-2.0433 1.9551-2.6074 0.54953-0.41215 1.3407-0.34319 1.9551-0.65039 0.76986-0.38493 1.2362-1.4758 1.9551-1.9551 1.1371-0.75805 5.2889-2.6445 6.5156-3.2578 0.19429-0.09715 0.49875 0.1536 0.65235 0 0.1536-0.1536-0.1536-0.49875 0-0.65234 0.16824-0.16824 14.923-0.37878 16.291-0.65234 7.797-1.5594 15.217-2.0122 22.809-3.9102 1.265-0.31626 11.639-0.37211 12.383 0 0.19429 0.09714-0.1536 0.49874 0 0.65234 0.0587 0.0587 19.602-6.1914 20.852-6.1914 4.9899 0 25.41-4.5625 30.467-4.5625 0.43829 0 4.4849-0.96608 7.0547-0.99805z" fill="#fab387" stroke-miterlimit="0" stroke-width="0"/><path d="m130.81 343.33c-3.0307-0.0252-6.1114-0.0195-6.3418 0.0957-0.51248 0.25624-2.3078 1.0051-2.6074 1.3047-1.8453 1.8453-1.9851 5.2429-3.9102 7.168-0.44389 0.4439-6.2504-0.30586-7.168 0-0.40802 0.13601-4.2811 6.0502-4.5605 7.168-1.045 4.18-1.0189 8.9578 0 13.033 0.10537 0.42147-0.19429 0.91611 0 1.3047 0.0971 0.19429 0.4561-0.0971 0.65039 0 5.5961 2.7981 11.667 5.0549 17.596 7.168 0 4.0704 0.42053 5.1493-2.6074 7.168-0.51121 0.34081-0.7532 1.028-1.3027 1.3027-0.54765 0.27382-2.2287 0.27362-2.6074 0.65235-0.15359 0.1536 0.1536 0.49874 0 0.65234-0.32583 0.32584-1.6292-0.32583-1.9551 0-0.1536 0.1536 0.1536 0.49679 0 0.65039-0.0229 0.0229-1.723 0.42031-1.9551 0.65234-0.16077 0.16077-0.16077 3.7494 0 3.9102 0.27308 0.27308 1.5601 0.45291 1.9551 0.65039 1.5302 0.7651 3.0323 1.8423 4.5625 2.6074 0.77716 0.38858 1.7554-0.17041 2.6074 0 0.47629 0.0953 0.83151 0.53455 1.3027 0.65235 4.7061 1.1765 12.332-1.2804 16.291-3.2598 0.91991-0.45996 0.96665-1.2829 1.3027-1.9551 0.99032-1.9806 4.5861-4.8976 6.5176-5.8633 1.1657-0.58287 2.6321 0.2556 3.9102 0 0.30123-0.0602 0.37758-0.51495 0.65235-0.65234 0.38858-0.19429 0.91415 0.19429 1.3027 0 2.0112-1.0056 3.8676-2.259 5.8652-3.2578 0.97825-0.48912 2.6521-1.396 3.2578-2.6074 0.0971-0.19429-0.1536-0.49874 0-0.65234s0.49874 0.1536 0.65234 0c0.25742-0.25742 1.8002-6.6706 1.3027-7.168-0.1536-0.1536-0.49875 0.1536-0.65235 0s0.0971-0.4561 0-0.65039c-0.54034-1.0807-2.5084-3.3106-3.2578-3.9102-0.3629-0.29032-1.7285-0.62497-1.9551-1.3047-1.7397-5.2192 5.8928-5.8082 1.9551-13.684-0.52711-1.0542-1.7884-1.5456-2.6074-1.9551-2.7121-1.356 0.69793 0.0436-0.65039-1.3047-2.565-2.565-1.3232-0.0259-3.2578-2.6055-0.29144-0.38858-0.2482-1.0353-0.65235-1.3047-1.2751-0.85009-10.234 0.71624-12.383 0-0.74301-0.24767-0.77365-1.6955-1.9531-1.3027-0.41214-0.13739-1.0637 0.36148-1.3047 0-1.2729-1.9093-0.23435-1.7471-1.9551-2.6074-0.0285-0.0143-3.0084-0.0705-6.0391-0.0957z" display="none" fill="#fab387" stroke-miterlimit="0" stroke-width="0"/><g fill="#f2cdcd" stroke-miterlimit="0" stroke-width="0"><path transform="matrix(1.1289 .071495 -.070685 1.1161 12.386 -106.57)" d="m396.59 274.07c-1.1202 0.087-2.7168 0.73633-3.2949 1.0254-0.19429 0.0971-0.26128 0.37534-0.46094 0.46094-0.88575 0.37961-2.7285 0.88674-3.4551 1.6133-0.0543 0.0543 0.0543 0.17617 0 0.23047-0.28075 0.28075-0.87159 0.41066-1.1523 0.69141-0.12143 0.12143-0.10903 0.3395-0.23047 0.46093-0.32716 0.32716-0.99575 0.43336-1.3828 0.69141-0.64772 0.43182-1.1873 1.2206-1.8418 1.6133-1.5104 0.90625-4.154 1.1482-5.7617 1.8418-0.3072-0.0768-0.60942-0.16837-0.91992-0.23047-0.72443-0.14488-2.4252 0.28544-2.9961 0-0.0971-0.0486-0.1251-0.20417-0.23047-0.23047-0.29801-0.0745-0.6471 0.13739-0.92187 0-0.49369-0.24689-0.68441-0.11174-0.92188-0.23047-0.0687-0.0344 0.0543-0.17617 0-0.23047-0.17725-0.1773-0.68535-0.17137-0.92187-0.23047-0.49956-0.12487-0.65083-0.56456-1.1504-0.68945-0.29803-0.0745-0.63045 0.0971-0.92188 0-0.10304-0.0344-0.12742-0.19607-0.23046-0.23047-0.87129-0.29043-1.863-0.28039-2.7656-0.46093-0.33679-0.0674-0.59604-0.35233-0.92187-0.46094-1.132-0.37732-2.3274-0.54597-3.4551-0.92188-0.9342-0.3114-4.2047 0.12251-5.0684 0.23047-1.5895 0.1987-3.2549 4e-3 -4.8398 0.23047-0.55348 0.0791-1.0578 0.38184-1.6113 0.46094-0.5322 0.076-1.083-0.0884-1.6133 0-0.70174 0.11696-1.3812 0.28768-2.0742 0.46094-0.64287 0.1607-1.4238 0.0684-2.0723 0.23046-0.1666 0.0417-0.29255 0.19677-0.46094 0.23047-0.37654 0.0753-0.7798-0.0931-1.1523 0-1.6419 0.4105 1.361 0.11796-1.3828 0.46094-1.8049 0.22561-4.0115 0.49481-5.7598 1.1504-2.1032 0.7887 0.34319 0.1929-1.1523 0.69141-0.3004 0.10014-0.63866 0.0889-0.92188 0.23047-0.19429 0.0971-0.26128 0.37533-0.46094 0.46093-0.14802 0.0635-0.30917 0.0803-0.4707 0.0996-0.23123 0.0277-0.46382 0.0499-0.67969 0.13086-0.93257 0.34972-2.0763 1.1534-2.9961 1.6133-0.97215 0.48608-2.0198 0.89465-2.9961 1.3828-0.24549 0.12274-0.48152 0.26456-0.72071 0.40039-1.371 0.77853-2.6652 1.7179-4.1172 2.3633-0.28936 0.1286-0.62633 0.1168-0.92188 0.23047-1.0591 0.40735-2.2786 1.1475-3.4551 1.3828-0.70259 0.1405-0.31709-0.27068-1.1523 0.23047-0.18627 0.11176-0.27467 0.34918-0.46094 0.46094-0.75628 0.45376-1.7995 0.66322-2.5332 1.1523-0.89225 0.59484-2.0035 1.8715-2.9961 2.5332-0.93278 0.62186-1.9381 1.1646-2.9434 1.6836-0.40263 0.20788-0.80578 0.42241-1.2031 0.62109-0.95244 0.47622-1.6 1.3762-2.5352 1.8438-0.74953 0.37477-0.72253 0.0311-1.3828 0.69141-0.12143 0.12142-0.10904 0.33755-0.23047 0.45898-0.20534 0.20534-0.53286 0.36363-0.86523 0.51758-0.27466 0.12721-0.55413 0.25073-0.7461 0.4043-1.2006 0.96051-2.4711 1.8195-3.6875 2.7656-0.25718 0.20005-0.4203 0.51067-0.6914 0.69141-0.20207 0.13469-0.50177 0.0788-0.69141 0.23047-0.21622 0.17297-0.26514 0.49561-0.46094 0.6914-0.39159 0.3916-0.94841 0.57591-1.3808 0.92188-0.50575 0.40459-0.87708 0.97626-1.3828 1.3809-0.55121 0.44095-1.3445 0.65311-1.8438 1.1523-0.12142 0.12143-0.10904 0.33951-0.23047 0.46094-0.11634 0.11635-1.2315 1.0388-1.3828 1.1523-0.69869 0.52401-1.6287 0.82115-2.3027 1.3828-0.1319 0.10993-0.10904 0.33951-0.23047 0.46094-0.50205 0.50205-1.2956 0.71185-1.8438 1.1504-0.36466 0.29173-0.71329 0.60388-1.0644 0.91211-0.18114 0.15899-0.36004 0.31967-0.54883 0.4707-1.0968 0.87747-2.0051 2.1472-2.9199 3.3398-0.47496 0.61916-0.95068 1.2222-1.457 1.7285-0.38047 0.38048-1.5292 1.194-1.8438 1.6133-0.85116 1.1349 0.87647-0.41554-0.92187 1.3828-0.12143 0.12143-0.33951 0.10904-0.46094 0.23047s-0.10904 0.33951-0.23047 0.46093c-0.12143 0.12143-0.32159 0.12743-0.45898 0.23047-0.80619 0.60465-0.18679 0.24907-0.69141 0.92188-0.77305 1.0307-1.9405 1.7736-2.7656 2.7637-0.42294 0.50752-0.6852 1.1461-1.1524 1.6133-0.12142 0.12143-0.35366 0.0964-0.46093 0.23047-0.21456 0.2682-0.27042 0.63611-0.46094 0.92187-0.9394 1.4091 0.082-0.61867-1.1504 0.92188-0.1517 0.18964-0.10552 0.48316-0.23047 0.69141-0.58368 0.97279-1.6008 1.6533-2.3047 2.5332-0.17299 0.21623-0.26514 0.49562-0.46094 0.6914-0.85001 0.85003-0.62792 0.02-1.3828 1.1524-0.1347 0.20207-0.10552 0.48317-0.23047 0.6914-0.40987 0.68315-1.1658 1.4358-1.6113 2.0723-0.88396 1.2628-1.706 3.1365-2.0742 4.6094-0.2254 0.90264-0.0797 1.859-0.23047 2.7637-0.24829 1.4897-0.25279 2.8622 0 4.3789 0.11156 0.6694 0.5533 1.3817 0.6914 2.0723 0.17986 0.89929 0.17647 1.9122 0.46094 2.7656 0.15306 0.45918 1.1958 2.3482 1.6113 2.7637 0.6793 0.67929 1.7639 0.90076 2.5352 1.3828 0.70435 0.44022 1.3647 1.1876 2.0742 1.6133 0.20825 0.12495 0.48054 0.10997 0.69141 0.23047 0.3334 0.19051 0.59066 0.49386 0.91992 0.6914 0.64697 0.3882 1.6103 0.32207 2.3047 0.46094 0.47628 0.0953 0.90866 0.35557 1.3828 0.46094 0.53241 0.11831 4.1367 0.1753 4.8379 0 1.6671-0.41677 3.3622-0.78674 5.0684-1.1523 0.61923-0.13269 1.2153-0.38234 1.8438-0.46094 0.538-0.0673 2.0504-0.0689 2.5352-0.23047 1.3044-0.43479-0.86824-0.21457 1.8418-0.46094 1.2526-0.11388 2.6814 0.24731 3.918 0 2.2053-0.44106 4.3585-1.2895 6.4512-2.0742 1.0449-0.39183 2.12-0.69764 3.1777-1.0527 0.32341-0.10857 0.65194-0.2014 0.96875-0.32813 1.5024-0.60097 2.8843-1.4764 4.3789-2.0742 1.2869-0.51478 1.7741-0.54234 2.9941-1.1524 0.43444-0.21722 0.9663-0.21103 1.3828-0.46094 0.0418-0.0251 0.0693-0.0686 0.10352-0.10351 0.11796-0.12056 0.21298-0.27076 0.35742-0.35742 0.33511-0.20108 1.312-0.34044 1.6133-0.46094 0.57054-0.22822 1.2268-0.6583 1.8418-0.92188 0.44643-0.19133 0.94179-0.25543 1.3828-0.45898 1.9391-0.89497 4.5534-2.8244 6.4512-3.457 1.4976-0.49919 3.063-0.92482 4.5918-1.4141 1.1994-0.38387 2.3785-0.80449 3.4726-1.3516 0.43444-0.21721 0.96632-0.20908 1.3828-0.45898 0.18626-0.11176 0.2852-0.33061 0.45898-0.46094 0.81413-0.6106 1.9606-1.0491 2.8711-1.5508 0.0388-0.0214 0.0871-0.0409 0.125-0.0625 1.038-0.59311 2.2136-0.98019 3.2266-1.6133 0.96685-0.6043 1.7982-1.4306 2.7637-2.0742 0.57563-0.38376 1.2726-0.57723 1.8438-0.91992 0.77106-0.46264 1.4925-1.2082 2.3027-1.6133 0.21723-0.10861 0.49712-0.0848 0.69141-0.23047 0.1374-0.10304 0.10904-0.33951 0.23047-0.46094 0.0543-0.0543 0.16657 0.0426 0.23047 0 0.99219-0.66147 2.4767-2.045 3.457-2.5352 0.21722-0.10859 0.48314-0.10551 0.6914-0.23046 0.37253-0.22352 0.57238-0.65926 0.91993-0.91993 0.59072-0.44303 1.514-0.50172 2.0742-0.92187 0.0785-0.0589 0.10325-0.16238 0.13086-0.26367 0.0207-0.0761 0.0407-0.15309 0.0996-0.19727 0.5508-0.4131 1.4789-0.56466 2.0742-0.92187 0.29631-0.17779 2.019-1.5424 2.3027-1.6133 0.22352-0.0559 0.47282 0.0729 0.6914 0 0.77592-0.25865 1.3958-1.161 2.0742-1.6133 0.46421-0.30945 0.95921-0.58329 1.4492-0.86328 0.5338-0.305 1.0629-0.61553 1.5469-0.97851 0.42021-0.31516 0.70248-0.88359 1.1504-1.1524 0.20826-0.12495 0.49711-0.0847 0.6914-0.23047 0.0792-0.0594 0.96055-1.191 1.1524-1.3828 0.56346-0.56348 1.3687-0.97989 1.8438-1.6133 0.1457-0.19429 0.0587-0.51968 0.23046-0.69141 0.05-0.05 0.43844-0.18556 0.46094-0.23046 0.3072-0.6144-0.32577-0.31864 0.23047-0.68946 0.14288-0.0953 0.36564-0.0876 0.46094-0.23047 0.0852-0.1278-0.0687-0.32354 0-0.46093 1.265-2.5301-0.31486 1.8665 0.6914-1.1524 0.0709-0.1417 1.7772-2.0355 1.8418-2.0742 0.20825-0.12495 0.48934-0.0958 0.69141-0.23046 0.2635-0.17565 0.0548-0.65841 0.23047-0.92188 0.64945-0.97419 1.6044-1.5994 2.3047-2.5332 0.22242-0.29655 0.32191-0.64382 0.46094-0.92188 0.0971-0.19429 0.39224-0.25486 0.46094-0.46094 0.0486-0.14569-0.0486-0.31521 0-0.46093 0.18345-0.55035 0.97271-1.0803 1.1504-1.6133 0.0486-0.14572-0.0486-0.31522 0-0.46094 0.0687-0.20607 0.39224-0.25486 0.46094-0.46094 0.14725-0.44172 0.0674-0.98732 0.46093-1.3809 0.0543-0.0543 0.17617 0.0543 0.23047 0 0.16292-0.16292-0.0559-0.46789 0-0.6914 0.0956-0.38258 0.35668-0.60908 0.46094-0.92188 0.0486-0.14571-0.0486-0.31523 0-0.46094 0.13867-0.41601 0.53562-0.91544 0.69141-1.3828 0.0691-0.20736-0.0691-0.48405 0-0.69141 0.0343-0.10303 0.18187-0.13336 0.23047-0.23046 0.0687-0.13738-0.0687-0.32356 0-0.46094 0.15153-0.30307 0.35706-0.60834 0.46093-0.91992 0.0738-0.22126-0.11057-0.70075 0-0.92188 0.23481-0.46962 0.32226-1.0586 0.46094-1.6133 0.0486-0.19456-0.1007-0.72046 0-0.92188 0.24842-0.49682 0.26933-1.0384 0.46094-1.6133 0.1336-0.40079-0.18679-1.0073 0-1.3809 0.3244-0.64877 0.0211-0.98519 0.23047-1.6133 0.0344-0.10304 0.18187-0.13337 0.23047-0.23047 0.1536-0.30719-0.1536-0.84514 0-1.1523 0.19141-0.38282 0.30904-0.69666 0.46093-1.1523 0.0729-0.21858-0.0729-0.47283 0-0.69141 0.24242-0.72727 0.80753-1.3866 1.1504-2.0723 0.4794-0.95885-0.0158 0.24623 0.46094-0.23046 0.0543-0.0543-0.0543-0.17617 0-0.23047 0.10861-0.10861 0.32356 0.0687 0.46094 0 0.26839-0.13419 0.42303-0.32675 0.6914-0.46094 0.13738-0.0687 0.35233 0.10861 0.46094 0 0.0543-0.0543-0.0543-0.17617 0-0.23047 0.1152-0.1152 0.34574-0.11527 0.46094-0.23047 0.0125-0.0125 0.44844-0.6789 0.46094-0.6914 0.0543-0.0543 0.17617 0.0543 0.23047 0s-0.0543-0.17617 0-0.23047c0.18007-0.1801 0.69383-0.15447 0.92187-0.23047 0.71915-0.23972-0.0767-0.15374 0.23047-0.46094 0.0768-0.0768 0.61461-0.15367 0.69141-0.23047 0.05-0.05 0.18558-0.43844 0.23046-0.46094 0.13738-0.0687 0.31523 0.0486 0.46094 0 0.20608-0.0687 0.25487-0.39223 0.46094-0.46093 0.56046-0.18682 2.7031-0.54589 2.9941-0.69141 0.0687-0.0343-0.0543-0.17617 0-0.23047 0.39019-0.3902 0.76216-0.0708 1.1523-0.46094 0.28074-0.28073 0.41066-0.86964 0.69141-1.1504 0.0543-0.0543 0.17617 0.0543 0.23047 0s-0.0343-0.16176 0-0.23046c0.0971-0.19429 0.36384-0.26665 0.46094-0.46094 0.22088-0.44175 0.5212-0.87223 0.6914-1.3828 0.10861-0.32583 0.37569-0.58867 0.45899-0.92188 0.0373-0.14901-0.0687-0.32355 0-0.46094 0.0768-0.1536 0.54703 0.27146 0.46093-0.23047 0.15248-0.45742 0.0983-1.7435-0.23046-2.0723-0.0543-0.0543-0.16177 0.0344-0.23047 0-0.19429-0.0971-0.2647-0.36384-0.45899-0.46094-0.11229-0.0561-0.25061-0.0904-0.40625-0.10547-0.13618-0.0132-0.28724-0.0124-0.44726 0zm-36.951 12.27c0.46231-0.0158 0.96811 0.0469 1.4004 0.0469 2.7702 0 4.6013 0.45851 6.9121 1.3828 0.41356 1.0484-0.8841 0.84436-1.1524 1.3809-0.2034 0.40681-1.1617 3.2172-0.92187 3.457 0.12143 0.12143 0.32355 0.12743 0.46093 0.23047 0.91201 0.684 0.015 0.24549 0.92188 1.1523 0.51662 0.51662 1.4022 0.78552 2.0742 0.91993 0.57913 0.11582 1.2699-0.14346 1.8438 0 0.54184 0.13546 0.79312 0.23046 1.3809 0.23046 0.58238 0 0.90599 8e-3 1.3828-0.23046 0.13739-0.0687 0.32356 0.0687 0.46094 0 0.21723-0.10861 0.6146-0.46087 0.6914-0.23047 0.17 0.51001 0 1.0757 0 1.6133 0 0.86643 0.0938 2.026-0.46093 2.7656-0.10304 0.13739-0.33951 0.10904-0.46094 0.23047-0.55547 0.55547-1.1432 1.828-1.6133 2.5332-0.35287 0.52931-0.12986-0.0987-0.68946 0.46093-0.24285 0.24286-0.21806 0.67902-0.46093 0.92188-0.27152 0.27153-0.75015 0.34795-0.92188 0.6914-0.10861 0.21722-0.10998 0.48055-0.23047 0.69141-0.45001 0.78752-1.149 1.3004-1.6133 2.0742-0.1767 0.29451-0.25487 0.64516-0.46094 0.91992-0.26066 0.34756-0.69835 0.54935-0.92187 0.92188-0.12495 0.20825-0.10998 0.48053-0.23047 0.6914-0.0725 0.71003-0.84373 0.86849-1.1523 1.3828-0.12495 0.20826-0.12185 0.47419-0.23047 0.69141-0.44458 0.88917-1.168 1.6466-1.6113 2.5332-1.2924 2.5848 1.2263-1.7427-0.69141 1.6133-0.36495 0.63865-1.4077 1.663-1.6133 2.0742-0.0344 0.0687 0.0543 0.17616 0 0.23047-0.3456 0.3456-0.80674 0.57628-1.1523 0.92188-0.1958 0.19581-0.26513 0.4956-0.46094 0.6914-0.0543 0.0543-0.16657-0.0426-0.23047 0-0.31075 0.20717-0.63662 0.42339-0.96094 0.64258-0.46259 0.31267-0.92202 0.63294-1.3418 0.96875-1.8104 1.4483-3.3656 3.3954-5.5293 4.3789-0.44218 0.20099-0.93183 0.28054-1.3828 0.46094-1.0119 0.40475-1.9768 0.99861-2.9961 1.3809-0.0307 0.0115-0.0642 0.0141-0.0957 0.0234-0.27195 0.0803-0.5653 0.0952-0.82617 0.20703-0.91419 0.3918-0.55048 0.55922-1.3809 1.1524-0.82026 0.5859-1.6866 0.87365-2.5352 1.3828-0.79346 0.47609-1.365 1.0459-2.0742 1.6133-0.71877 0.57501-0.1815-0.0163-0.92188 0.23047-0.15395 0.0513-1.4423 1.0256-1.6113 1.1523-0.99226 0.74421-2.3424 0.90316-3.457 1.3809-0.31569 0.13529-0.60029 0.34034-0.92187 0.46094-0.4832 0.18119-1.1747 0.13347-1.6113 0.46094-0.22896 0.17172-0.80357 0.59506-1.3555 0.98633-0.38971 0.27628-0.79261 0.55983-0.94922 0.62695-0.35147 0.15063-1.2396 0.23676-1.6133 0.46094-0.18627 0.11176-0.26665 0.36381-0.46094 0.46093-0.13738 0.0687-0.31522-0.0486-0.46094 0-0.33167 0.11057-0.62491 0.77437-0.91992 0.92188-0.13739 0.0687-0.31193-0.0372-0.46094 0-0.4512 0.1128-0.77375 0.50211-1.1523 0.69141-0.0666 0.0333-0.14132 0.0508-0.20898 0.082-1.7614 0.81353-3.8558 0.97323-5.5508 1.9902-0.18626 0.11176-0.30734 0.30734-0.46094 0.46094-0.53759 0.3072-1.0595 0.64498-1.6133 0.92187-0.36992 0.18495-0.79326 0.25575-1.1524 0.46094-0.1886 0.10778-0.26666 0.3638-0.46093 0.46094-0.28323 0.14161-0.62959 0.10868-0.92188 0.23047-6.2649 2.6104 0.41215-0.0899-2.5332 1.3828-0.81759 0.40879-1.7596 0.63337-2.5352 1.1504-0.29999 0.19999-0.60413 0.53253-0.92187 0.69141-0.4266 0.2133-0.92087 0.13847-1.3809 0.23047-0.18552 0.0371-0.35394 0.1316-0.52539 0.21289-0.3586 0.17001-0.70743 0.36981-1.0879 0.47851-0.91911 0.2626-2.113 0.24986-2.9961 0.69141-0.0687 0.0343 0.0543 0.17617 0 0.23047-0.33869 0.3387-3.1013 0.77581-3.6856 0.92187-0.29361 0.0734-0.98716 0.58817-1.1523 0.69141-0.64647 0.40404-2.691 1.5871-3.4551 1.8418-0.30039 0.10013-0.63082 0.10574-0.92187 0.23046-1.0158 0.43536-2.0069 1.1187-2.9961 1.6133-1.3046 0.65231-3.6595 1.3785-5.0684 1.6133-0.22724 0.0379-0.46548-0.0452-0.6914 0-0.33358 0.0667-0.81878 0.39422-1.1524 0.46093-1.5959 0.31918-3.2285 0.69197-4.8379 0.92188-0.814 0.11629-4.4744 1.1036-5.2988 0.69141-0.27648-0.13824-0.41493-0.55317-0.69141-0.69141-0.24576-0.12288-0.30811 0.228-0.46094-0.23047-0.0486-0.14572 0.0852-0.33314 0-0.46094-0.0953-0.14289-0.37258-0.0832-0.46094-0.23047-0.16289-0.27151-0.11928-0.62538-0.23046-0.92187-0.2174-0.57974-0.72608-1.0259-0.92188-1.6133-0.17173-0.51519-0.0588-1.0962-0.23047-1.6113-0.0469-0.1406-0.41407-0.55081-0.46094-0.69141-0.0486-0.14571 0.0486-0.31523 0-0.46093-0.0344-0.10304-0.19012-0.12963-0.23046-0.23047-0.38027-0.95068-0.57153-1.8944-1.1524-2.7656-0.10927-0.16392-0.56882-1.6973-0.45898-1.8438 0.57639-0.76853 1.4283-0.96732 2.0723-1.6113 0.12143-0.12142 0.10904-0.3395 0.23047-0.46093s0.32684-0.12319 0.46094-0.23047c0.50574-0.4046 0.87707-0.97823 1.3828-1.3828 0.21623-0.17298 0.51843-0.24471 0.69141-0.46094 0.15171-0.18964 0.0958-0.48933 0.23047-0.69141 0.61514-0.92272 1.7316-1.5813 2.3027-2.5332 0.12495-0.20825 0.15367-0.46101 0.23047-0.69141 0.3072-0.53758 0.5668-1.106 0.92188-1.6133 0.55033-0.78621 1.3069-1.4994 1.8438-2.3047 1.3956-2.0935-0.77696 0.39605 1.3828-2.0723 0.93365-1.067 1.8489-2.3676 2.9941-3.2266 0.75248-0.56437 0.21646 0.19036 0.92187-0.69141 0.27975-0.34969 0.37475-0.8357 0.69141-1.1523 0.1958-0.1958 0.49561-0.26513 0.69141-0.46094 0.26403-0.26403 0.42738-0.88637 0.6914-1.1504 0.79692-0.79692 1.8038-1.3929 2.5332-2.3047 0.48095-0.60121 0.99295-1.1664 1.5176-1.7168 1.1646-1.2217 2.4265-2.334 3.7832-3.3516 0.0408-0.0306 0.65061-0.89128 0.6914-0.92187 0.19429-0.14572 0.49982-0.0788 0.68946-0.23047 0.21622-0.17298 0.26514-0.49561 0.46093-0.69141 0.63316-0.63316 1.5766-1.0188 2.3047-1.3828 0.30859-0.1543 0.31939-0.54986 0.46094-0.69141 0.24285-0.24285 0.67902-0.21808 0.92187-0.46094 0.19581-0.19579 0.26514-0.49364 0.46094-0.68945 0.42413-0.42413 0.86652-0.84374 1.3809-1.1523 0.20825-0.12495 0.48316-0.10552 0.69141-0.23047 0.89139-0.53484 1.5732-1.4745 2.334-2.2715 0.34847-0.365 0.7105-0.70754 1.123-0.95507 0.20825-0.12495 0.48056-0.10998 0.6914-0.23047 1.1973-0.68419 2.0273-1.849 3.2246-2.5332 0.64495-0.36853 1.5438-0.65462 2.3379-0.99804 0.42014-0.18168 0.81958-0.37558 1.1191-0.61524 0.13409-0.10727 0.0931-0.3579 0.23047-0.46093 0.4679-0.35094 1.1354-0.35146 1.6113-0.69141 0.26514-0.18939 0.43697-0.48786 0.69141-0.69141 0.1341-0.10727 0.3395-0.10904 0.46094-0.23047 0.12142-0.12142 0.0964-0.35366 0.23046-0.46093 2.304-1.8432 4.5e-4 0.34536 1.3828-0.69141 0.17377-0.13034 0.27673-0.34386 0.46093-0.45898 2.1857-1.3661 4.6398-2.0904 6.9121-3.2266 0.4923-0.24614-0.0313-0.21478 0.46094-0.46093 1.282-0.64099 2.6278-1.2476 3.959-1.875 0.76564-0.36089 1.5372-0.71663 2.2617-1.1191 0.33567-0.18648 0.57843-0.51968 0.92188-0.69141 1.3777-0.68887 2.9557-0.84985 4.377-1.3828 0.85903-0.32214 1.6912-0.79063 2.5352-1.1524 0.26149-0.11206 0.53809-0.19472 0.8125-0.2832 1.3693-0.4415 2.8662-0.63753 4.2559-0.86914 0.79306-0.13218 1.3-0.36441 2.0723-0.46094 1.6376-0.20471 3.234-0.79353 4.8398-1.1504 2.5386-0.56412-0.23129 0.0229 2.3027-0.23047 1.0187-0.10188 1.9972-0.49163 2.9961-0.6914 0.8547-0.17095 1.7141-0.0663 2.5352-0.23047 0.16839-0.0337 0.29059-0.19679 0.45899-0.23047 0.14016-0.028 0.28925-0.0416 0.44336-0.0469zm-23.91 56.629c0.0429 0.024 0.25605 0.37209 0.20117 0.4375-0.19097-0.3494-0.22689-0.45192-0.20117-0.4375z" opacity=".99"/><path transform="matrix(1.1289 .071495 -.070685 1.1161 12.386 -106.57)" d="m280.08 308.46c-0.21594 5e-3 -0.46699 0.043-0.60351 0.043-1.2939 0-2.6097-0.0814-3.2266 1.1523-0.21638 0.43275 0.23047 0.79649 0.23047 1.1523 0 1.1885 0.41559 3.1339 0.92187 4.1465 0.27648 0.55294 1.1063 0.82986 1.3828 1.3828 0.10794 0.21589 0.35299 0.47553 0.46094 0.69141 0.14159 0.28321-0.22694 0.71422 0.23047 0.92187 0.35149 0.52722 0.18252-0.14384 0.46094 0.69141 0.0293 0.0881 0.0455 0.23834 0.0742 0.34375 0.19919 0.73073 0.37371 1.7675 0.15625 2.4199-0.091 0.27292-0.56187 0.43234-0.69141 0.69141-0.16603 0.33206 0.15547 0.46655 0.23047 0.6914 0.1393 0.41798 0.12271 0.95176 0.23047 1.3828 0.13142 0.52565 0.86214 1.2634 1.1523 1.8438 0.31896 0.63792 0.83994 1.2209 1.1504 1.8418 0.09 0.17995 0.25963 0.95103 0.46094 1.1524 0.12143 0.12142 0.32356 0.12743 0.46094 0.23046 0.38796 0.29097 1.3556 1.6448 1.6133 2.0742 0.12495 0.20825 0.0848 0.49712 0.23047 0.69141 0.10304 0.13739 0.30733 0.15367 0.46093 0.23047 0.0768 0.0768 0.17027 0.14007 0.23047 0.23047 0.42636 0.63952 0.83472 1.437 1.1524 2.0723 0.1044 0.20879 0 0.9479 0 1.1524 0 0.90613-0.27666 2.8575 0 3.6875 0.17242 0.51727 0.4285 0.6246 0.6914 1.1504 0.10861 0.21723 0.0848 0.49711 0.23047 0.6914 0.20608 0.27477 0.63416 0.27042 0.91992 0.46094 0.27111 0.18074 0.43698 0.48786 0.69141 0.69141 0.31943 0.25554 1.0809 0.61998 1.3828 0.92187 0.12143 0.12144 0.10904 0.33951 0.23047 0.46094 0.13019 0.13019 0.75025 0.28931 0.92188 0.46094 0.0543 0.0543-0.0687 0.19617 0 0.23047 0.13737 0.0687 0.32354-0.0687 0.46093 0 0.1536 0.0768 0.0876 0.36563 0.23047 0.46093 0.59872 0.39915 1.2693 0.69239 1.8418 1.1504 0.33925 0.2714 0.58263 0.65049 0.92187 0.92188 0.34968 0.27975 0.8357 0.37476 1.1524 0.6914 0.12143 0.12143 0.10904 0.33951 0.23047 0.46094 0.41898 0.41898 1.035 0.63057 1.3828 1.1524 0.0953 0.14289 0.10904 0.3395 0.23047 0.46093s0.33951 0.10904 0.46093 0.23047c0.26684 0.26684 0.38284 1.1745 0.46094 1.3828 0.29451 0.78536 0.81891 1.4054 1.1524 2.0723 0.36809 0.73617 0.29893 1.7349 0.45898 2.5352 0.17579 0.87895 0.54309 1.7681 0.875 2.6328 0.19831 0.51665 0.38602 1.0265 0.50781 1.5137 0.12587 0.50346 1.8782 2.0914 2.3047 2.3047 0.0844 0.0422 0.82498-0.0969 0.92188 0 0.0543 0.0543-0.0543 0.17617 0 0.23047 0.0927 0.0927 2.4812 0.30107 2.7637 0.23047 0.10537-0.0263 0.12743-0.19617 0.23047-0.23047 0.52926-0.1764 2.2068-0.0116 2.5352-0.23047 0.68108-0.45406 1.39-1.0407 2.0742-1.3828 0.95887-0.4794-0.24623 0.0158 0.23047-0.46094 0.0543-0.0543 0.17617 0.0543 0.23047 0 0.32584-0.32583 0-0.92202 0-1.3828 0-0.50812 0.16175-1.3566 0-1.8418-0.0951-0.28516-1.0702-2.2225-1.1524-2.3047-0.22531-0.22531-0.59558-0.30505-0.81835-0.56445-0.0354-0.0412-0.0773-0.0746-0.10352-0.12695-0.31108-0.62216-1.0981-2.018-1.6133-2.5332-0.12144-0.12143-0.33951-0.10904-0.46094-0.23047-0.12172-0.12172-0.5697-1.0306-0.69141-1.1523-0.12865-0.12866-0.6855-0.33685-0.92187-0.69141-0.17785-0.26677-0.55354-1.2469-0.68945-1.3828-0.0543-0.0543-0.17617 0.0543-0.23047 0-0.10672-0.10672-0.20154-0.41608-0.29492-0.70898-0.0551-0.17287-0.11006-0.35942-0.16602-0.44336-0.25417-0.38125-1.0046-0.93764-1.1523-1.3809-0.0486-0.14572 0.0687-0.32356 0-0.46094-0.0768-0.1536-0.54704 0.27146-0.46094-0.23047-0.31138-0.62276-0.74322-1.23-1.1523-1.8438-0.10301-0.1545-0.13015-0.82155-0.23047-0.92187-0.0543-0.0543-0.17617 0.0543-0.23047 0-0.1152-0.1152 0.1152-0.57621 0-0.69141-0.0543-0.0543-0.17617 0.0543-0.23047 0-0.16292-0.16292 0.0729-0.47283 0-0.69141-0.0343-0.10302-0.19607-0.12743-0.23047-0.23046-0.10872-0.32617-0.10946-2.6658 0-2.9942 0.18608-0.55822 0.80493-2.3081 0.46094-2.9961-0.18686-0.37373-0.49552-0.76058-0.69141-1.1523-0.0343-0.0687 0.0543-0.17617 0-0.23047s-0.16177 0.0343-0.23047 0c-0.35286-0.17644-0.18031-0.40883-0.46093-0.68945-0.1152-0.1152-0.57621 0.11519-0.69141 0-0.0543-0.0543 0.0343-0.16177 0-0.23047-0.14936-0.29871-1.1245-0.62731-1.3809-0.69141-0.2304-0.0576-0.46101 0.1152-0.69141 0-0.0687-0.0344 0.0543-0.17617 0-0.23047s-0.17617 0.0543-0.23047 0c-0.1217-0.12172-0.56969-1.0306-0.6914-1.1523-0.26112-0.26112-0.73095-0.30955-0.92188-0.69141-0.20389-0.40789 0.34263-0.0789-0.23047-0.46094-0.14288-0.0953-0.3395-0.10904-0.46093-0.23046-0.24286-0.24287-0.24638-0.65368-0.46094-0.92188-0.64136-0.8017-1.7727-1.4194-2.3027-2.3027-0.1767-0.29452-0.27042-0.6361-0.46094-0.92188-0.40247-0.6037-1.1937-0.85829-1.6133-1.3828-0.1517-0.18965-0.0847-0.49712-0.23047-0.69141-0.0241-0.0321-1.3355-1.1239-1.3828-1.1523-0.0976-0.0586-0.21225-0.08-0.32618-0.10352-0.12913-0.0267-0.25787-0.0554-0.36523-0.12695-1.2658-0.84385-0.30692-0.38366-0.92188-1.1523-0.81458-1.0182-1.8693-1.6388-2.7637-2.5332-0.40931-0.40932-0.72759-0.95804-1.1523-1.3828-0.2544-0.25439-0.50437-0.1492-0.69141-0.46094-0.13523-0.22538-0.24948-0.46675-0.37304-0.70117-0.40575-0.76977-0.783-1.5614-1.2402-2.293-0.20351-0.32562-0.55667-0.5623-0.69141-0.92187-0.25748-0.68713-0.30538-1.4348-0.45898-2.1524-8e-3 -0.0189-0.32403-1.121-0.69141-1.3047-0.0718-0.0359-0.18879-0.0458-0.31836-0.043z" opacity=".99"/><path transform="matrix(1.1289 .071495 -.070685 1.1161 12.386 -106.57)" d="m298.51 284.07c-0.94256-9e-3 -2.2298 0.0298-2.4512 0.47266-0.26981 0.53962 0.15237 2.7582 0.23047 3.2266 0.17552 1.0531 0.2396 2.321 0.6914 3.2246 0.10304 0.20608-0.0452 0.46549 0 0.69141 0.0476 0.23814 0.15367 0.46101 0.23047 0.6914 0.0768 0.1536 0.18877 0.29433 0.23047 0.46094 0.11725 0.46898 0.0243 0.73999 0.23047 1.1523 0.31382 0.62764 1.0127 0.99453 1.3828 1.6113 0.12496 0.20825 0.0848 0.49712 0.23047 0.69141 0.10304 0.1374 0.31805 0.13517 0.46094 0.23047 0.37126 0.24751 0.71953 0.8151 0.92187 1.1523 0.26751 0.44586 0.58843 1.1082 0.68946 1.6133 0.12586 0.62935-0.20297 1.4634 0 2.0723 8e-3 0.0253 0.0377 0.038 0.0566 0.0566 0.0582 0.0571 0.13717 0.10059 0.17383 0.17383 0.24119 0.48239-0.035 2.0042 0.23047 2.5352 0.0486 0.0971 0.20416 0.1251 0.23046 0.23047 0.2157 0.86269 0.0119 1.8912 0.23047 2.7656 0.0527 0.21072 0.36384 0.26469 0.46094 0.45898 0.12278 0.24557-0.12278 0.21538 0 0.46094 0.15908 0.31815 0.56768 0.97524 0.92188 1.1523 0.0687 0.0343 0.17616-0.0543 0.23046 0s-0.0426 0.16657 0 0.23047c8e-3 0.0122 0.0209 0.0212 0.0293 0.0332 0.41691 0.59767 1.147 0.99746 1.584 1.5801 0.29062 0.38751 0.17031 0.76484 0.46093 1.1524 0.10304 0.1374 0.3579 0.0931 0.46094 0.23046 0.26993 0.3599 0.13237 0.82379 0.46094 1.1524 0.12143 0.12143 0.33755 0.10709 0.45898 0.22851 0.33039 0.33038 0.26565 1.0573 0.46094 1.3828 0.0884 0.1473 0.3579 0.0931 0.46094 0.23047 0.21974 0.29297 0.917 1.9124 1.1523 2.3047 0.69119 1.152 0.23062 2.2e-4 0.69141 0.69141 0.36401 0.54603 0.89711 1.2463 1.1523 1.8418 0.51251 1.1958 0.74795 2.2438 1.1523 3.457 0.22403 0.67209 0.55523 1.1628 0.69141 1.8438 0.0603 0.30123-0.13738 0.6471 0 0.92187 0.33527 0.67053 0.30495 1.3032 0.68945 2.0723 0.2585 0.51699 0.9732 1.0758 1.1524 1.6133 0.0486 0.14572-0.0486 0.31522 0 0.46094 0.14525 0.43573 1.4431 1.6434 1.8438 1.8438 0.28354 0.14177 1.5664 0.32228 1.8438 0.46093 0.19429 0.0971 0.25926 0.37829 0.46094 0.45899 0.16658 0.0666 1.2043 0.0539 1.3808 0.23047 0.0543 0.0543-0.0344 0.16177 0 0.23047 0.13206 0.26412 0.48095 0.32062 0.69141 0.46093 0.25451 0.16967 1.0584 1.2417 1.1523 1.3828 0.1347 0.20207 0.10552 0.48315 0.23047 0.6914 0.29183 0.48639 0.8102 0.92663 1.1524 1.3828 0.33995 0.45327 0.40628 0.9076 0.6914 1.3828 0.0707 0.11784 0.16475 0.21147 0.25196 0.3125 0.48614 0.5632 1.1557 0.93723 1.3613 1.7598 0.0372 0.14902-0.0486 0.31522 0 0.46094 0.16861 0.50585 0.60086 0.99329 0.68946 1.6133 0.11459 0.80213-0.0222 1.5466 0.23047 2.3047 0.19544 0.58631 0.70016 1.2225 0.90625 1.8106 4e-3 0.0101 0.0122 0.0211 0.0156 0.0312 0.0486 0.14572-0.0486 0.31521 0 0.46093 0.13649 0.40948 0.73994 0.78849 0.92188 1.1524 0.0687 0.13739-0.0852 0.33314 0 0.46093 0.0953 0.1429 0.36563 0.0876 0.46093 0.23047 0.0852 0.1278-0.0687 0.32356 0 0.46094 0.0971 0.19429 0.32188 0.29406 0.46094 0.46094 0.42295 0.50753 0.6852 1.1461 1.1524 1.6133 0.1958 0.1958 0.4956 0.26318 0.6914 0.45898 0.12143 0.12143 0.10904 0.33951 0.23047 0.46094s0.31806 0.13517 0.46094 0.23047c0.14929 0.0995 1.8768 1.6482 2.0723 1.8438 0.12143 0.12143 0.10904 0.33951 0.23047 0.46094 0.29677 0.29677 1.2169 0.95416 1.6133 1.1523 0.13964 0.0698 0.59491 0.13397 0.69141 0.23047 0.0543 0.0543-0.0543 0.17617 0 0.23047 0.23012 0.23013 2.8383 1.9976 3.2246 1.6113 0.0543-0.0543-0.0543-0.17422 0-0.22852 0.1536-0.1536 0.76827 0.1536 0.92187 0 0.0543-0.0543-0.0543-0.17617 0-0.23047 0.10861-0.10861 0.35233 0.10861 0.46094 0 0.0543-0.0543-0.0343-0.16177 0-0.23047 0.13563-0.27126 1.4166-0.82659 1.6133-1.6133 0.20657-0.82628-0.0404-1.7749-0.23047-2.5352-0.2773-1.1092-0.50433-2.0221-1.1523-2.9941-0.17723-0.26585-0.51418-0.42557-0.69141-0.69141-0.0953-0.14289-0.10902-0.33951-0.23046-0.46094-0.12143-0.12143-0.33951-0.10904-0.46094-0.23047-0.12144-0.12143 0.22596-0.48393-0.23047-0.46093-0.14289-0.0953-0.33951-0.10903-0.46094-0.23047-0.25907-0.25906-0.48432-0.84466-0.68945-1.1524-0.31518-0.47276-0.67498-0.88902-0.92188-1.3828-0.35391-0.70783-0.13016 0.38093-0.6914-0.46094-0.0852-0.1278 0.0852-0.33118 0-0.45898-0.0953-0.1429-0.36564-0.0876-0.46094-0.23047-0.0852-0.1278 0.0372-0.31193 0-0.46094-0.1988-0.79517-0.15982-0.18953-0.46094-0.6914-0.22822-0.38038-0.23535-0.41584-0.35547-0.62891-0.0346-0.0614-0.0745-0.13213-0.10156-0.18164-0.0303 0.0361-0.14234-0.0193-0.46484-0.3418-0.0543-0.0543 0.0344-0.16177 0-0.23047-0.22166-0.44332-1.2347-1.7999-1.6133-2.3047-0.38707-0.51609-0.9938-0.86478-1.3809-1.3809-0.10303-0.13738-0.15367-0.30734-0.23047-0.46094 0-0.1536 0.0852-0.33313 0-0.46094-0.0953-0.1429-0.33951-0.10903-0.46094-0.23047-0.40146-0.40146-0.66188-1.288-0.89453-1.7793-8e-3 -0.0174-0.0192-0.0481-0.0273-0.0645-0.11172-0.22343-0.63931-1.1002-0.69141-1.1523-0.12143-0.12143-0.36564-0.0876-0.46094-0.23047-0.0852-0.12781 0.0687-0.32356 0-0.46094-0.0143-0.0285-0.59521-0.26853-0.6914-0.46093-0.81391-1.6278-2.1338-2.7407-3.2246-4.377-0.29783-0.44673-0.7372-0.59832-0.92188-1.1523-0.0813-0.24389-0.50436-1.7984-0.23047-2.0723 0.0543-0.0543 0.17617 0.0543 0.23047 0 0.10861-0.10861-0.0687-0.32355 0-0.46093 0.0486-0.0971 0.19607-0.12743 0.23047-0.23047 0.0486-0.14572-0.0852-0.33314 0-0.46094 0.0953-0.1429 0.33951-0.10904 0.46094-0.23047 0.89918-0.89918-0.0533-0.12394 0.23047-0.69141 0.61129-1.2226 1.1504-1.9944 1.1504-3.457 0-0.20444 0.1044-0.94159 0-1.1504-0.23968-0.47939-0.52806-0.33032-0.91993-0.46093-0.30719-0.1024-0.62685-0.31343-0.92187-0.46094-0.18195-0.091-0.4971 0.0648-0.69141 0-0.16291-0.0543-0.29801-0.17617-0.46093-0.23047-0.53168-0.17722-1.3484 0.24768-1.8438 0-0.88922-0.44459-2.1061-0.0169-2.9941-0.46094-0.50942-0.25472-0.0716-0.14314-0.23047-0.46094-0.13824-0.27647-0.55318-0.41492-0.69141-0.6914-0.0344-0.0687 0.0543-0.17617 0-0.23047s-0.17617 0.0543-0.23047 0c-0.10862-0.10861 0.0687-0.32355 0-0.46094-0.20469-0.40937-0.66373-0.76513-0.92187-1.1523-0.52232-0.78348-0.62705-1.7453-1.1524-2.5332-0.78322-1.1748-1.6579-2.3977-2.3027-3.6875-0.10861-0.21721-0.0848-0.49711-0.23047-0.6914-0.10303-0.1374-0.31805-0.13517-0.46094-0.23047-0.0904-0.0602-0.15367-0.15367-0.23047-0.23047 0-0.0768 0.0543-0.17617 0-0.23047s-0.19617 0.0687-0.23047 0c-0.14159-0.28322-0.10186-0.63056-0.23046-0.91992-0.18188-0.40922-0.5061-0.74467-0.69141-1.1523-0.079-0.17373-0.13167-0.35794-0.19727-0.53711-0.24338-0.66481-0.43702-1.351-0.72461-1.998-0.77467-1.743-0.16395-0.10878-1.3828-2.3027-0.49363-0.88856-0.87-1.8682-1.3828-2.7656-0.0706-0.12347-0.12002-0.25932-0.17773-0.39062-0.34758-0.79073-0.51526-1.6889-0.97266-2.375-0.35226-0.52839-1.0566-0.83708-1.3828-1.3809-0.12495-0.20825-0.0787-0.50177-0.23047-0.69141-0.17298-0.21623-0.49561-0.26514-0.69141-0.46094-0.25532-0.25531-0.20562-0.66655-0.46094-0.92187-0.12142-0.12143-0.35365-0.0964-0.46093-0.23047-0.21456-0.26819-0.23742-0.66111-0.46094-0.92188-0.2499-0.29155-0.65035-0.41987-0.92188-0.6914-0.12841-0.12843-0.74306-1.1444-0.92187-1.3828-0.4658-0.62167 6e-3 -0.37597-0.45899-1.1504-0.11175-0.18626-0.34917-0.27466-0.46093-0.46093-0.44947-0.74912-0.79687-1.6678-0.92188-2.5352-0.1854 0-0.4612-9e-3 -0.77539-0.0117z" opacity=".99"/><path transform="matrix(1.1289 .071495 -.070685 1.1161 12.386 -106.57)" d="m329.24 279.01c-0.55264 0.1382-1.0958 0.1011-1.6133 0.23047-0.1666 0.0417-0.29434 0.18877-0.46093 0.23047-0.14901 0.0373-0.32355-0.0687-0.46094 0-0.0687 0.0344 0.0543 0.17617 0 0.23047-0.16291 0.16292-0.48339-0.10303-0.68946 0-0.0687 0.0344 0 0.15367 0 0.23047h-0.46093c-0.69054 0.23017-1.0881 1.0219-1.3828 1.6113-0.12382 0.24767-0.11552 2.1892 0 2.3047 0.0543 0.0543 0.17617-0.0543 0.23047 0s-0.0343 0.16177 0 0.23047c0.0971 0.19429 0.34045 0.2802 0.46094 0.46094 0.28294 0.4244 0.47796 0.95592 0.69141 1.3828 0.1645 0.32901 0.52379 0.9553 0.66015 1.3223 6e-3 0.0169 0.026 0.0448 0.0312 0.0605 0.0486 0.14571-0.0852 0.33314 0 0.46094 0.0953 0.1429 0.33756 0.10709 0.45899 0.22852 0.4767 0.47669-0.72838-0.0185 0.23047 0.46093 0.50199 0.25101 0.46093 0.31963 0.46093 0.92188 0 0.47024-0.57578 2.8812-0.46093 2.9961 0.0543 0.0543 0.17617-0.0543 0.23047 0 0.11519 0.1152-0.1152 0.57621 0 0.69141 0.0543 0.0543 0.17616-0.0543 0.23046 0s-0.0426 0.16657 0 0.23047c0.1205 0.18074 0.36384 0.26665 0.46094 0.46094 0.0687 0.13738-0.0687 0.32355 0 0.46093 0.0344 0.0687 0.17617-0.0543 0.23047 0 0.1152 0.1152 0.11527 0.34379 0.23047 0.45899 0.0732 0.0732 0.29018 0.13619 0.50391 0.19922 0.2698 0.0796 0.54617 0.15945 0.64843 0.26171 0.0543 0.0543-0.0543 0.17617 0 0.23047s0.16177-0.0343 0.23047 0c0.36899 0.18449 0.57573 0.69112 0.92188 0.92188 0.28899 0.19267 0.74628 0.34024 0.92187 0.6914 0.0343 0.0687-0.0543 0.17617 0 0.23047s0.16177-0.0343 0.23047 0c0.31043 0.15522 0.98142 1.2714 1.1523 1.6133 0.10304 0.20608-0.0559 0.46789 0 0.69141 0.0417 0.1666 0.18682 0.29434 0.22852 0.46094 0.22778 0.91111-0.37536 2.9348 0 3.6856 0.11429 0.22856 0.38144 0.45274 0.46094 0.6914 0.0486 0.14571-0.0486 0.31523 0 0.46094 0.23972 0.71914 0.15374-0.0767 0.46093 0.23047 0.35467 0.35467 0.56721 1.0281 0.92188 1.3828 0.0543 0.0543 0.17617-0.0543 0.23047 0 0.0115 0.0115 0.89177 1.7516 0.92187 1.8418 0.0486 0.14572-0.0687 0.32356 0 0.46093 0.0971 0.19429 0.36384 0.26665 0.46094 0.46094 0.0687 0.13738-0.0687 0.32355 0 0.46094 0.24522 0.49044 0.90548 0.88907 1.1523 1.3828 0.0687 0.13738-0.0486 0.31522 0 0.46094 0.1973 0.5919 0.64995 1.0694 0.92188 1.6133 0.29781 0.59562 0.33732 1.2237 0.46094 1.8418 0.36087 1.8044 0.54551 3.6281 1.3809 5.2988 0.21316 0.4263 0.79449 0.68331 1.1523 0.92187 0.5293 0.35288-0.0987 0.13182 0.46094 0.69141 0.24286 0.24286 0.679 0.21808 0.92187 0.46093 0.12143 0.12143 0.0931 0.3579 0.23047 0.46094 0.19429 0.1457 0.49712 0.0847 0.69141 0.23047 0.1374 0.10304 0.10904 0.33951 0.23047 0.46094s0.33951 0.10903 0.46093 0.23047c0.12143 0.12143 0.10904 0.33951 0.23047 0.46093 0.25907 0.25907 0.84271 0.48628 1.1504 0.69141 0.27228 0.18152 0.32264 0.55311 0.46094 0.69141 0.4767 0.47669-0.0185-0.7284 0.46094 0.23047 0.19821 0.3964 0.36416 0.96476 0.5957 1.4043 0.0344 0.0652 0.0575 0.14969 0.0957 0.20703 0.12049 0.18074 0.36384 0.26665 0.46094 0.46094 0.1416 0.28322 0.11286 0.62787 0.23047 0.92188 0.1761 0.44026 1.1097 0.41829 1.3828 0.6914 0.0543 0.0543-0.0543 0.17617 0 0.23047 0.30128 0.30128 1.2397 0.31153 1.6133 0.46094 0.2571 0.10284 0.46101 0.30734 0.69141 0.46094 0.1536 0 0.31327-0.0486 0.45899 0 0.48212 0.16071 0.86672 0.74984 1.3828 0.92187 0.16362 0.0545 0.51138 0.12731 0.82226 0.19727 0.61532 0.13846 1.2849 0.29666 1.4824 0.49414 0.0543 0.0543-0.0543 0.17617 0 0.23047s0.16176-0.0343 0.23046 0c0.62178 0.3109-8e-3 0.10341 0.23047 0.46093 0.18074 0.27111 0.58838 0.38035 0.69141 0.68946 0.0486 0.14572-0.0687 0.32355 0 0.46093 0.0971 0.19429 0.36384 0.26665 0.46094 0.46094 0.11404 0.22806 0.0291 0.95098 0.23047 1.1524 0.0543 0.0543 0.17616-0.0543 0.23046 0 0.61391 0.6139-0.6139-0.15297 0 0.46093 0.0543 0.0543 0.17617-0.0543 0.23047 0 5e-3 5e-3 0.63976 1.4642 0.68946 1.6133 0.0974 0.29235 0.23812 1.16 0.46093 1.3828 0.0543 0.0543 0.17617-0.0543 0.23047 0 0.0424 0.0425 0.18807 0.64695 0.23047 0.68945 0.24287 0.24286 0.67902 0.21807 0.92188 0.46094 0.0543 0.0543-0.0543 0.17617 0 0.23047 0.16292 0.16292 1.3574 0 1.6133 0 0.93354 0 1.9615-0.28986 2.5352-1.1504 0.0852-0.1278-0.0687-0.32356 0-0.46094 0.11428-0.22857 0.37949-0.45276 0.45899-0.69141 0.36531-1.0959 0.4305-4.0987 0.23047-5.2988-0.0282-0.16939-0.18877-0.29432-0.23047-0.46093-0.0559-0.22352 0.16292-0.5285 0-0.69141-0.0543-0.0543-0.17422 0.0543-0.22852 0-0.0169-0.0169-0.15577-1.9248-0.23047-2.0742-0.0343-0.0687-0.17617 0.0543-0.23047 0-0.258-0.258-0.59247-2.041-0.92187-2.5352-0.16163-0.24245-0.3912-0.43849-0.625-0.63282-0.27893-0.23184-0.56498-0.4588-0.75781-0.74804-0.32577-0.48865-0.45086-1.1322-0.69141-1.6133-0.0971-0.19428-0.36384-0.26664-0.46094-0.46093-0.0344-0.0687 0.0543-0.17617 0-0.23047-0.0359-0.0359-0.6555-0.42504-0.6914-0.46094-0.28062-0.28062-0.10806-0.51497-0.46094-0.69141-0.0687-0.0344-0.17617 0.0543-0.23047 0s0.0543-0.17616 0-0.23046-0.19617 0.0687-0.23047 0c-0.0687-0.13738 0.0486-0.31522 0-0.46094-0.10304-0.30911-0.54569-0.39998-0.6914-0.69141-0.0687-0.13739 0-0.30734 0-0.46094l-0.23047-0.45898c-0.011-0.0165-0.0278-0.0323-0.0391-0.0488-0.52638-0.76884-1.3226-1.4878-1.5723-2.4863-0.1253-0.50121-0.21588-1.1232-0.46094-1.6133-0.1361-0.27217-0.52197-0.43724-0.6914-0.6914-0.17236-0.25854-0.3306-0.6612-0.46094-0.92188-0.0687-0.13738 0.10861-0.35233 0-0.46094-0.12903-0.12902-0.35146-0.13055-0.46094-0.45898-0.0486-0.14571 0.0486-0.31522 0-0.46094-0.18562-0.55686-0.98558-0.94622-1.1523-1.6133-0.26778-1.0711 0.29022-1.1011 0.46093-1.6133 0.0486-0.14572-0.0486-0.31523 0-0.46094 0.15469-0.46404 0.46094-0.80171 0.46094-1.3828 0-0.52304 0.23148-1.6093 0-2.0723-0.25601-0.51201-0.74782-1.3216-0.92187-1.8438-0.0554-0.16619-0.10103-1.0229-0.23047-1.1523-0.0543-0.0543-0.17617 0.0543-0.23047 0-0.1486-0.14863-0.11827-0.98403-0.23047-1.1523-0.0953-0.14289-0.30734-0.15367-0.46094-0.23047-0.26107-0.13054-0.97885-0.2894-1.1504-0.46094-0.0543-0.0543 0.0543-0.17422 0-0.22852-0.16291-0.16291-0.46101 0-0.6914 0-0.98153 0-2.2926-0.23349-3.2266 0-0.2356 0.0589-0.45184 0.18862-0.6914 0.22852-0.17368 0.0289-1.312 0.069-1.3809 0-0.21998-0.21998-0.2838-0.88468-0.46094-1.1504-0.36721-0.55081-0.87748-0.97194-1.1523-1.6133-0.12473-0.29105-0.13033-0.62148-0.23047-0.92188-0.20346-0.61039-0.63994-1.2799-0.92188-1.8438-0.0971-0.19428-0.39223-0.25487-0.46093-0.46093-0.17699-0.53097-0.11433-1.0914-0.46094-1.6113-0.18888-0.28331-0.40045-0.72791-0.69141-0.92188-0.21047-0.14031-0.55934-0.19681-0.6914-0.46093-0.22604-0.45209-0.52791-1.2193-0.92188-1.6133-0.0223-0.0223-0.0744-0.0352-0.10742-0.0527-0.1763-0.0934-0.4521-0.14833-0.58203-0.4082-0.30021-0.60042-0.66077-1.3522-1.1524-1.8438-0.33243-0.33244-0.83805-0.50087-1.1523-0.91993-0.33229-0.44304-0.49643-1.0283-0.92188-1.3828-0.26384-0.21987-0.65801-0.24106-0.92187-0.46094-0.21272-0.17726-0.26514-0.4956-0.46094-0.6914-0.19581-0.19581-0.49561-0.26514-0.6914-0.46094-0.10224-0.10224-0.1694-0.23353-0.24024-0.36133-0.0648-0.11695-0.13357-0.2305-0.2207-0.33008-1.3228-1.5118-2.9937-2.7095-4.1465-4.377z" opacity=".99"/></g><path transform="matrix(.059193 .093246 -.093582 .05898 137.92 326.57)" d="m629.76 61.296 15.824 13.316c-1.3928 3.2384-4.9373 6.8389-10.592 10.875-2.8273 1.208-4.2618 2.4411-4.2618 3.6492 0 0.38648 0.71728 1.402 2.1099 3.0209-90.85 52.442-167.9 101.64-231.32 147.61 85.238 64.549 137.31 101.5 156.34 110.73-3.5446 11.31-11.267 19.986-23.25 26.027-4.22 2.0304-9.4946 4.4229-15.866 7.2498-11.225 5.2924-16.837 8.0956-16.837 8.5307v0.55609l3.1646 6.6457c-2.8691 0.79728-5.359 2.2236-7.4265 4.2289-7.7645 5.268-16.246 8.9172-25.36 10.923-2.8272 0-6.3292-1.208-10.634-3.6492-2.7848-1.1601-6.2875-2.61-10.507-4.2288-4.2618-1.6188-6.2874-2.4411-6.2874-2.4411-0.75979-0.38648-1.4346-0.60401-2.1518-0.60401 0 0-1.0972 0.43509-3.2072 1.2323-14.769 10.512-28.146 17.158-40.13 19.986-2.11 0-4.9372-0.60403-8.4393-1.8364-22.533-13.268-46.459-30.644-71.819-52.007-21.099-18.149-36.922-31.102-47.556-38.763l-10.507 8.4585-72.916 54.496c-9.1566 6.8632-35.192 27.453-78.191 61.698h-13.756l-20.128-12.663c1.4345-3.2384 2.1943-4.8572 2.1943-4.8572 1.3927-2.4168 2.0675-3.6005 2.0675-3.6005 0-2.4168-2.11-3.6492-6.3293-3.6492-4.2193 0-10.549 1.2567-18.989 3.6492-0.75978 0-2.8272 0.57965-6.3293 1.8128-7.7645-2.4412-19.031-10.512-33.842-24.191-4.22-3.6005-6.2874-6.066-6.2874-7.274 0-0.79724 1.7726-2.6343 5.2746-5.4619 4.9372-4.4708 7.3846-8.0721 7.3846-10.875 0-0.79724-3.502-5.5099-10.549-13.92-3.502-6.066-5.2321-9.0625-5.2321-9.0625l51.734-38.135 115.16-76.198c2.8273-2.4648 5.6545-4.4708 8.4393-6.066-45.742-45.578-83.044-90.746-111.95-135.55-6.3293-10.899-10.169-18.56-11.604-22.982 9.8738-8.8693 22.871-17.786 39.117-26.656 7.0472 3.2384 12.279 5.6788 15.824 7.2741 2.7848 2.8276 5.612 4.2289 8.4393 4.2289 7.0472 0 11.604-2.9965 13.714-9.0625 2.1518-11.31 10.929-17.158 26.458-17.545 4.9372 0 11.604 2.61 20.044 7.8301 44.433 41.567 87.053 78.469 127.82 110.76 91.652-57.686 167.27-102.25 227.19-133.74 11.984-6.0417 18.609-9.0625 20.086-9.0625 3.5021 0 14.094 5.0269 31.732 15.104l6.2876 4.8572c0 0.79723-1.0547 2.1992-3.1648 4.2532-1.3926 0.79726-2.0674 1.5952-2.0674 2.3925 0 1.208 6.2874 4.4464 18.904 9.7152l15.908-2.4168 6.2849 5.3897v8e-6z" fill="#f38ba8"/></svg>
